G04 Layer_Physical_Order=2*
G04 Layer_Color=11436288*
%FSLAX43Y43*%
%MOMM*%
G71*
G01*
G75*
%ADD25C,0.500*%
%ADD26C,0.300*%
%ADD27C,0.200*%
%ADD29C,1.550*%
%ADD30R,1.550X1.550*%
%ADD31R,1.880X1.880*%
%ADD32C,1.880*%
%ADD33P,1.815X8X202.5*%
%ADD34P,1.815X8X292.5*%
%ADD35C,2.500*%
%ADD36C,0.700*%
%ADD37C,0.400*%
%ADD38C,0.686*%
G36*
X80010Y49530D02*
X68438D01*
X68377Y49632D01*
X68377Y49657D01*
Y50698D01*
X65989D01*
Y49657D01*
X65989Y49632D01*
X65928Y49530D01*
X46355D01*
Y53741D01*
X46480Y53766D01*
X46485Y53752D01*
X46718Y53449D01*
X47021Y53216D01*
X47373Y53070D01*
X47752Y53020D01*
X48131Y53070D01*
X48483Y53216D01*
X48786Y53449D01*
X49019Y53752D01*
X49165Y54104D01*
X49198Y54359D01*
X49325Y54351D01*
Y54102D01*
X49360Y53926D01*
X49460Y53778D01*
X50222Y53016D01*
X50370Y52916D01*
X50546Y52881D01*
X62992D01*
X63168Y52916D01*
X63316Y53016D01*
X66286Y55985D01*
X67194D01*
X67713Y56504D01*
Y57542D01*
X67194Y58061D01*
X66156D01*
X65637Y57542D01*
Y56634D01*
X62802Y53799D01*
X51085D01*
X51072Y53926D01*
X51269Y53965D01*
X51451Y54086D01*
X51572Y54268D01*
X51615Y54483D01*
X51572Y54698D01*
X51451Y54880D01*
X51411Y54906D01*
Y56213D01*
X51528Y56262D01*
X51805Y55985D01*
X52843D01*
X53362Y56504D01*
Y57542D01*
X52843Y58061D01*
X52001D01*
X51952Y58179D01*
X52658Y58885D01*
X52705Y58875D01*
X52920Y58918D01*
X53102Y59039D01*
X53223Y59221D01*
X53266Y59436D01*
X53223Y59651D01*
X53102Y59833D01*
X52920Y59954D01*
X52705Y59997D01*
X52490Y59954D01*
X52308Y59833D01*
X52187Y59651D01*
X52144Y59436D01*
X52154Y59389D01*
X50802Y58037D01*
X50724Y57922D01*
X50707Y57837D01*
X50577Y57787D01*
X50303Y58061D01*
X49265D01*
X48746Y57542D01*
Y56504D01*
X49265Y55985D01*
X49325D01*
Y54615D01*
X49198Y54607D01*
X49165Y54862D01*
X49019Y55214D01*
X48786Y55517D01*
X48483Y55750D01*
X48131Y55896D01*
X47752Y55946D01*
X47373Y55896D01*
X47021Y55750D01*
X46718Y55517D01*
X46485Y55214D01*
X46480Y55200D01*
X46355Y55225D01*
Y84455D01*
X80010D01*
Y49530D01*
D02*
G37*
%LPC*%
G36*
X49922Y62633D02*
X48884D01*
X48365Y62114D01*
Y61076D01*
X48884Y60557D01*
X49922D01*
X50441Y61076D01*
Y62114D01*
X49922Y62633D01*
D02*
G37*
G36*
X77481D02*
X76443D01*
X75924Y62114D01*
Y61076D01*
X76443Y60557D01*
X77481D01*
X78000Y61076D01*
Y62114D01*
X77481Y62633D01*
D02*
G37*
G36*
X49922Y65173D02*
X48884D01*
X48365Y64654D01*
Y63616D01*
X48884Y63097D01*
X49922D01*
X50441Y63616D01*
Y64654D01*
X49922Y65173D01*
D02*
G37*
G36*
X74568Y62175D02*
X74353Y62132D01*
X74171Y62011D01*
X74050Y61829D01*
X74007Y61614D01*
X74050Y61399D01*
X74171Y61217D01*
X74211Y61191D01*
Y61000D01*
X73131Y59920D01*
X67352D01*
X67326Y59960D01*
X67144Y60081D01*
X66929Y60124D01*
X66714Y60081D01*
X66532Y59960D01*
X66411Y59778D01*
X66368Y59563D01*
X66411Y59348D01*
X66532Y59166D01*
X66714Y59045D01*
X66929Y59002D01*
X67144Y59045D01*
X67326Y59166D01*
X67352Y59206D01*
X73279D01*
X73416Y59233D01*
X73531Y59311D01*
X74820Y60600D01*
X74898Y60715D01*
X74925Y60852D01*
Y61191D01*
X74965Y61217D01*
X75086Y61399D01*
X75129Y61614D01*
X75086Y61829D01*
X74965Y62011D01*
X74783Y62132D01*
X74568Y62175D01*
D02*
G37*
G36*
X74814Y58061D02*
X73776D01*
X73257Y57542D01*
Y56504D01*
X73776Y55985D01*
X74814D01*
X75333Y56504D01*
Y57542D01*
X74814Y58061D01*
D02*
G37*
G36*
X77354D02*
X76316D01*
X75797Y57542D01*
Y56504D01*
X76316Y55985D01*
X77354D01*
X77873Y56504D01*
Y57542D01*
X77354Y58061D01*
D02*
G37*
G36*
X72274D02*
X71236D01*
X70717Y57542D01*
Y56504D01*
X71236Y55985D01*
X72274D01*
X72793Y56504D01*
Y57542D01*
X72274Y58061D01*
D02*
G37*
G36*
X77481Y65173D02*
X76443D01*
X75924Y64654D01*
Y63616D01*
X76443Y63097D01*
X77481D01*
X78000Y63616D01*
Y64654D01*
X77481Y65173D01*
D02*
G37*
G36*
X60833Y68028D02*
Y67564D01*
X61297D01*
X61275Y67673D01*
X61141Y67872D01*
X60942Y68006D01*
X60833Y68028D01*
D02*
G37*
G36*
X60579D02*
X60470Y68006D01*
X60271Y67872D01*
X60137Y67673D01*
X60115Y67564D01*
X60579D01*
Y68028D01*
D02*
G37*
G36*
X49926Y68692D02*
X49462D01*
X49484Y68583D01*
X49618Y68384D01*
X49817Y68250D01*
X49926Y68228D01*
Y68692D01*
D02*
G37*
G36*
X76454Y83533D02*
X76199Y83500D01*
X75962Y83402D01*
X75759Y83245D01*
X75602Y83042D01*
X75504Y82805D01*
X75471Y82550D01*
X75504Y82295D01*
X75602Y82058D01*
X75759Y81855D01*
X75962Y81698D01*
X76148Y81621D01*
Y77851D01*
X66147Y67850D01*
X66040Y67871D01*
X65847Y67832D01*
X65793Y67885D01*
X65763Y67935D01*
X65796Y67984D01*
X65839Y68199D01*
X65817Y68306D01*
X74130Y76619D01*
X74197Y76718D01*
X74220Y76835D01*
Y81621D01*
X74406Y81698D01*
X74609Y81855D01*
X74766Y82058D01*
X74864Y82295D01*
X74897Y82550D01*
X74864Y82805D01*
X74766Y83042D01*
X74609Y83245D01*
X74406Y83402D01*
X74169Y83500D01*
X73914Y83533D01*
X73659Y83500D01*
X73422Y83402D01*
X73219Y83245D01*
X73062Y83042D01*
X72964Y82805D01*
X72931Y82550D01*
X72964Y82295D01*
X73062Y82058D01*
X73219Y81855D01*
X73422Y81698D01*
X73608Y81621D01*
Y76962D01*
X65385Y68739D01*
X65278Y68760D01*
X65063Y68717D01*
X64881Y68596D01*
X64760Y68414D01*
X64717Y68199D01*
X64760Y67984D01*
X64881Y67802D01*
X65063Y67681D01*
X65278Y67638D01*
X65471Y67677D01*
X65525Y67624D01*
X65555Y67574D01*
X65522Y67525D01*
X65479Y67310D01*
X65522Y67095D01*
X65643Y66913D01*
X65825Y66792D01*
X66040Y66749D01*
X66255Y66792D01*
X66437Y66913D01*
X66558Y67095D01*
X66601Y67310D01*
X66579Y67417D01*
X68969Y69807D01*
X69068Y69726D01*
X69059Y69713D01*
X69036Y69596D01*
X69036Y69596D01*
Y69164D01*
X68945Y69104D01*
X68824Y68922D01*
X68781Y68707D01*
X68824Y68492D01*
X68945Y68310D01*
X69127Y68189D01*
X69342Y68146D01*
X69557Y68189D01*
X69739Y68310D01*
X69860Y68492D01*
X69903Y68707D01*
X69860Y68922D01*
X69739Y69104D01*
X69648Y69164D01*
Y69469D01*
X69870Y69691D01*
X69977Y69670D01*
X70192Y69713D01*
X70374Y69834D01*
X70495Y70016D01*
X70538Y70231D01*
X70495Y70446D01*
X70374Y70628D01*
X70192Y70749D01*
X70108Y70766D01*
X70066Y70904D01*
X76670Y77508D01*
X76670Y77508D01*
X76737Y77607D01*
X76760Y77724D01*
X76760Y77724D01*
Y78427D01*
X76887Y78452D01*
X76965Y78263D01*
X77198Y77960D01*
X77501Y77727D01*
X77853Y77581D01*
X78232Y77531D01*
X78611Y77581D01*
X78963Y77727D01*
X79266Y77960D01*
X79499Y78263D01*
X79645Y78615D01*
X79695Y78994D01*
X79645Y79373D01*
X79499Y79725D01*
X79266Y80028D01*
X78963Y80261D01*
X78611Y80407D01*
X78232Y80457D01*
X77853Y80407D01*
X77501Y80261D01*
X77198Y80028D01*
X76965Y79725D01*
X76887Y79536D01*
X76760Y79561D01*
Y81621D01*
X76946Y81698D01*
X77149Y81855D01*
X77306Y82058D01*
X77404Y82295D01*
X77437Y82550D01*
X77404Y82805D01*
X77306Y83042D01*
X77149Y83245D01*
X76946Y83402D01*
X76709Y83500D01*
X76454Y83533D01*
D02*
G37*
G36*
X52578Y83827D02*
X52280Y83787D01*
X52003Y83673D01*
X51765Y83490D01*
X51582Y83252D01*
X51468Y82975D01*
X51428Y82677D01*
X51468Y82379D01*
X51582Y82102D01*
X51765Y81864D01*
X52003Y81681D01*
X52272Y81570D01*
Y72136D01*
X52272Y72136D01*
X52295Y72019D01*
X52362Y71920D01*
X58007Y66274D01*
X57986Y66167D01*
X58029Y65952D01*
X58150Y65770D01*
X58332Y65649D01*
X58547Y65606D01*
X58762Y65649D01*
X58944Y65770D01*
X59065Y65952D01*
X59108Y66167D01*
X59065Y66382D01*
X58944Y66564D01*
X58762Y66685D01*
X58547Y66728D01*
X58440Y66706D01*
X52884Y72263D01*
Y81570D01*
X53153Y81681D01*
X53391Y81864D01*
X53574Y82102D01*
X53688Y82379D01*
X53728Y82677D01*
X53688Y82975D01*
X53574Y83252D01*
X53391Y83490D01*
X53153Y83673D01*
X52876Y83787D01*
X52578Y83827D01*
D02*
G37*
G36*
X64643Y70792D02*
X64428Y70749D01*
X64246Y70628D01*
X64125Y70446D01*
X64104Y70341D01*
X62287Y68523D01*
X62187Y68375D01*
X62152Y68199D01*
Y65997D01*
Y65356D01*
X61511D01*
X61335Y65321D01*
X61187Y65221D01*
X61087Y65073D01*
X61052Y64897D01*
X61087Y64721D01*
X61187Y64573D01*
X61335Y64473D01*
X61511Y64438D01*
X62152D01*
Y63797D01*
X62187Y63621D01*
X62287Y63473D01*
X62435Y63373D01*
X62611Y63338D01*
X62787Y63373D01*
X62935Y63473D01*
X63035Y63621D01*
X63070Y63797D01*
Y64438D01*
X63711D01*
X63887Y64473D01*
X64035Y64573D01*
X64135Y64721D01*
X64170Y64897D01*
X64135Y65073D01*
X64035Y65221D01*
X63887Y65321D01*
X63711Y65356D01*
X63070D01*
Y65997D01*
Y68009D01*
X64753Y69692D01*
X64858Y69713D01*
X65040Y69834D01*
X65161Y70016D01*
X65204Y70231D01*
X65161Y70446D01*
X65040Y70628D01*
X64858Y70749D01*
X64643Y70792D01*
D02*
G37*
G36*
X61297Y67310D02*
X60833D01*
Y66846D01*
X60942Y66868D01*
X61141Y67002D01*
X61275Y67201D01*
X61297Y67310D01*
D02*
G37*
G36*
X60579D02*
X60115D01*
X60137Y67201D01*
X60271Y67002D01*
X60470Y66868D01*
X60579Y66846D01*
Y67310D01*
D02*
G37*
G36*
X74941Y51838D02*
X73903D01*
X73384Y51319D01*
Y50281D01*
X73903Y49762D01*
X74941D01*
X75460Y50281D01*
Y51319D01*
X74941Y51838D01*
D02*
G37*
G36*
X55891D02*
X54853D01*
X54334Y51319D01*
Y50281D01*
X54853Y49762D01*
X55891D01*
X56410Y50281D01*
Y51319D01*
X55891Y51838D01*
D02*
G37*
G36*
X67056Y52019D02*
X65989D01*
Y50952D01*
X67056D01*
Y52019D01*
D02*
G37*
G36*
X77481Y51838D02*
X76443D01*
X75924Y51319D01*
Y50281D01*
X76443Y49762D01*
X77481D01*
X78000Y50281D01*
Y51319D01*
X77481Y51838D01*
D02*
G37*
G36*
X62103Y51975D02*
X61805Y51936D01*
X61528Y51821D01*
X61290Y51638D01*
X61107Y51400D01*
X60993Y51123D01*
X60953Y50825D01*
X60993Y50528D01*
X61107Y50251D01*
X61290Y50012D01*
X61528Y49830D01*
X61805Y49715D01*
X62103Y49676D01*
X62401Y49715D01*
X62678Y49830D01*
X62916Y50012D01*
X63099Y50251D01*
X63213Y50528D01*
X63253Y50825D01*
X63213Y51123D01*
X63099Y51400D01*
X62916Y51638D01*
X62678Y51821D01*
X62401Y51936D01*
X62103Y51975D01*
D02*
G37*
G36*
X59563D02*
X59265Y51936D01*
X58988Y51821D01*
X58750Y51638D01*
X58567Y51400D01*
X58453Y51123D01*
X58413Y50825D01*
X58453Y50528D01*
X58567Y50251D01*
X58750Y50012D01*
X58988Y49830D01*
X59265Y49715D01*
X59563Y49676D01*
X59861Y49715D01*
X60138Y49830D01*
X60376Y50012D01*
X60559Y50251D01*
X60673Y50528D01*
X60713Y50825D01*
X60673Y51123D01*
X60559Y51400D01*
X60376Y51638D01*
X60138Y51821D01*
X59861Y51936D01*
X59563Y51975D01*
D02*
G37*
G36*
X53351Y51838D02*
X52313D01*
X51794Y51319D01*
Y50281D01*
X52313Y49762D01*
X53351D01*
X53870Y50281D01*
Y51319D01*
X53351Y51838D01*
D02*
G37*
G36*
X64643Y51975D02*
X64345Y51936D01*
X64068Y51821D01*
X63830Y51638D01*
X63647Y51400D01*
X63533Y51123D01*
X63493Y50825D01*
X63533Y50528D01*
X63647Y50251D01*
X63830Y50012D01*
X64068Y49830D01*
X64345Y49715D01*
X64643Y49676D01*
X64941Y49715D01*
X65218Y49830D01*
X65456Y50012D01*
X65639Y50251D01*
X65753Y50528D01*
X65793Y50825D01*
X65753Y51123D01*
X65639Y51400D01*
X65456Y51638D01*
X65218Y51821D01*
X64941Y51936D01*
X64643Y51975D01*
D02*
G37*
G36*
X68377Y52019D02*
X67310D01*
Y50952D01*
X68377D01*
Y52019D01*
D02*
G37*
G36*
X57923Y58061D02*
X56885D01*
X56366Y57542D01*
Y56504D01*
X56885Y55985D01*
X57923D01*
X58442Y56504D01*
Y57542D01*
X57923Y58061D01*
D02*
G37*
G36*
X55383D02*
X54345D01*
X53826Y57542D01*
Y56504D01*
X54345Y55985D01*
X55383D01*
X55902Y56504D01*
Y57542D01*
X55383Y58061D01*
D02*
G37*
G36*
X69734D02*
X68696D01*
X68177Y57542D01*
Y56504D01*
X68696Y55985D01*
X69734D01*
X70253Y56504D01*
Y57542D01*
X69734Y58061D01*
D02*
G37*
G36*
X60463D02*
X59425D01*
X58906Y57542D01*
Y56504D01*
X59425Y55985D01*
X60463D01*
X60982Y56504D01*
Y57542D01*
X60463Y58061D01*
D02*
G37*
G36*
X49105Y51816D02*
X48641D01*
Y51352D01*
X48750Y51374D01*
X48949Y51508D01*
X49083Y51707D01*
X49105Y51816D01*
D02*
G37*
G36*
X48387D02*
X47923D01*
X47945Y51707D01*
X48079Y51508D01*
X48278Y51374D01*
X48387Y51352D01*
Y51816D01*
D02*
G37*
G36*
X48641Y52534D02*
Y52070D01*
X49105D01*
X49083Y52179D01*
X48949Y52378D01*
X48750Y52512D01*
X48641Y52534D01*
D02*
G37*
G36*
X48387D02*
X48278Y52512D01*
X48079Y52378D01*
X47945Y52179D01*
X47923Y52070D01*
X48387D01*
Y52534D01*
D02*
G37*
G36*
X50644Y68692D02*
X50180D01*
Y68228D01*
X50289Y68250D01*
X50488Y68384D01*
X50622Y68583D01*
X50644Y68692D01*
D02*
G37*
G36*
X57531Y82550D02*
X56464D01*
Y81483D01*
X57531D01*
Y82550D01*
D02*
G37*
G36*
X61995Y79439D02*
Y78975D01*
X62459D01*
X62437Y79084D01*
X62303Y79283D01*
X62104Y79417D01*
X61995Y79439D01*
D02*
G37*
G36*
X66421Y82423D02*
X65519D01*
Y81521D01*
X66421D01*
Y82423D01*
D02*
G37*
G36*
X58852Y82550D02*
X57785D01*
Y81483D01*
X58852D01*
Y82550D01*
D02*
G37*
G36*
X61741Y78721D02*
X61277D01*
X61299Y78612D01*
X61433Y78413D01*
X61632Y78279D01*
X61741Y78257D01*
Y78721D01*
D02*
G37*
G36*
X69596Y77553D02*
Y77089D01*
X70060D01*
X70038Y77198D01*
X69904Y77397D01*
X69705Y77531D01*
X69596Y77553D01*
D02*
G37*
G36*
X61741Y79439D02*
X61632Y79417D01*
X61433Y79283D01*
X61299Y79084D01*
X61277Y78975D01*
X61741D01*
Y79439D01*
D02*
G37*
G36*
X62459Y78721D02*
X61995D01*
Y78257D01*
X62104Y78279D01*
X62303Y78413D01*
X62437Y78612D01*
X62459Y78721D01*
D02*
G37*
G36*
X67577Y82423D02*
X66675D01*
Y81521D01*
X67577D01*
Y82423D01*
D02*
G37*
G36*
Y83579D02*
X66675D01*
Y82677D01*
X67577D01*
Y83579D01*
D02*
G37*
G36*
X66421D02*
X65519D01*
Y82677D01*
X66421D01*
Y83579D01*
D02*
G37*
G36*
X58852Y83871D02*
X57785D01*
Y82804D01*
X58852D01*
Y83871D01*
D02*
G37*
G36*
X57531D02*
X56464D01*
Y82804D01*
X57531D01*
Y83871D01*
D02*
G37*
G36*
X61468Y83533D02*
X61213Y83500D01*
X60976Y83402D01*
X60773Y83245D01*
X60616Y83042D01*
X60518Y82805D01*
X60485Y82550D01*
X60518Y82295D01*
X60616Y82058D01*
X60773Y81855D01*
X60976Y81698D01*
X61213Y81600D01*
X61468Y81567D01*
X61723Y81600D01*
X61960Y81698D01*
X62163Y81855D01*
X62320Y82058D01*
X62418Y82295D01*
X62451Y82550D01*
X62418Y82805D01*
X62320Y83042D01*
X62163Y83245D01*
X61960Y83402D01*
X61723Y83500D01*
X61468Y83533D01*
D02*
G37*
G36*
X50038Y83827D02*
X49740Y83787D01*
X49463Y83673D01*
X49225Y83490D01*
X49042Y83252D01*
X48928Y82975D01*
X48888Y82677D01*
X48928Y82379D01*
X49042Y82102D01*
X49225Y81864D01*
X49463Y81681D01*
X49740Y81567D01*
X50038Y81527D01*
X50336Y81567D01*
X50613Y81681D01*
X50851Y81864D01*
X51034Y82102D01*
X51148Y82379D01*
X51188Y82677D01*
X51148Y82975D01*
X51034Y83252D01*
X50851Y83490D01*
X50613Y83673D01*
X50336Y83787D01*
X50038Y83827D01*
D02*
G37*
G36*
X72349Y83525D02*
X70399D01*
Y81575D01*
X72349D01*
Y83525D01*
D02*
G37*
G36*
X64008Y83533D02*
X63753Y83500D01*
X63516Y83402D01*
X63313Y83245D01*
X63156Y83042D01*
X63058Y82805D01*
X63025Y82550D01*
X63058Y82295D01*
X63156Y82058D01*
X63313Y81855D01*
X63516Y81698D01*
X63753Y81600D01*
X64008Y81567D01*
X64263Y81600D01*
X64500Y81698D01*
X64703Y81855D01*
X64860Y82058D01*
X64958Y82295D01*
X64991Y82550D01*
X64958Y82805D01*
X64860Y83042D01*
X64703Y83245D01*
X64500Y83402D01*
X64263Y83500D01*
X64008Y83533D01*
D02*
G37*
G36*
X49347Y73566D02*
X48928D01*
X48382Y73020D01*
Y72601D01*
X49347D01*
Y73566D01*
D02*
G37*
G36*
X77283Y73598D02*
X76245D01*
X75726Y73079D01*
Y72041D01*
X76245Y71522D01*
X77283D01*
X77802Y72041D01*
Y73079D01*
X77283Y73598D01*
D02*
G37*
G36*
X55118Y83827D02*
X54820Y83787D01*
X54543Y83673D01*
X54305Y83490D01*
X54122Y83252D01*
X54008Y82975D01*
X53968Y82677D01*
X54008Y82379D01*
X54122Y82102D01*
X54305Y81864D01*
X54543Y81681D01*
X54812Y81570D01*
Y71501D01*
X54812Y71501D01*
X54835Y71384D01*
X54902Y71285D01*
X58896Y67290D01*
X58875Y67183D01*
X58918Y66968D01*
X59039Y66786D01*
X59221Y66665D01*
X59436Y66622D01*
X59651Y66665D01*
X59833Y66786D01*
X59954Y66968D01*
X59997Y67183D01*
X59954Y67398D01*
X59833Y67580D01*
X59651Y67701D01*
X59436Y67744D01*
X59329Y67723D01*
X55424Y71628D01*
Y77124D01*
X55551Y77163D01*
X55610Y77073D01*
X55792Y76952D01*
X56007Y76909D01*
X56054Y76919D01*
X59311Y73662D01*
X59426Y73584D01*
X59563Y73557D01*
X68792D01*
X68818Y73517D01*
X69000Y73396D01*
X69215Y73353D01*
X69430Y73396D01*
X69612Y73517D01*
X69733Y73699D01*
X69776Y73914D01*
X69733Y74129D01*
X69612Y74311D01*
X69430Y74432D01*
X69215Y74475D01*
X69000Y74432D01*
X68818Y74311D01*
X68792Y74271D01*
X59711D01*
X56558Y77423D01*
X56568Y77470D01*
X56525Y77685D01*
X56404Y77867D01*
X56222Y77988D01*
X56007Y78031D01*
X55792Y77988D01*
X55610Y77867D01*
X55551Y77777D01*
X55424Y77816D01*
Y81570D01*
X55693Y81681D01*
X55931Y81864D01*
X56114Y82102D01*
X56228Y82379D01*
X56268Y82677D01*
X56228Y82975D01*
X56114Y83252D01*
X55931Y83490D01*
X55693Y83673D01*
X55416Y83787D01*
X55118Y83827D01*
D02*
G37*
G36*
X50020Y73566D02*
X49601D01*
Y72601D01*
X50566D01*
Y73020D01*
X50020Y73566D01*
D02*
G37*
G36*
X50180Y69410D02*
Y68946D01*
X50644D01*
X50622Y69055D01*
X50488Y69254D01*
X50289Y69388D01*
X50180Y69410D01*
D02*
G37*
G36*
X49926D02*
X49817Y69388D01*
X49618Y69254D01*
X49484Y69055D01*
X49462Y68946D01*
X49926D01*
Y69410D01*
D02*
G37*
G36*
X50566Y72347D02*
X49601D01*
Y71382D01*
X50020D01*
X50566Y71928D01*
Y72347D01*
D02*
G37*
G36*
X49347D02*
X48382D01*
Y71928D01*
X48928Y71382D01*
X49347D01*
Y72347D01*
D02*
G37*
G36*
X49993Y76052D02*
X48955D01*
X48436Y75533D01*
Y74495D01*
X48955Y73976D01*
X49993D01*
X50512Y74495D01*
Y75533D01*
X49993Y76052D01*
D02*
G37*
G36*
X69342Y76835D02*
X68878D01*
X68900Y76726D01*
X69034Y76527D01*
X69233Y76393D01*
X69342Y76371D01*
Y76835D01*
D02*
G37*
G36*
X77310Y76192D02*
X76891D01*
Y75227D01*
X77856D01*
Y75646D01*
X77310Y76192D01*
D02*
G37*
G36*
X69342Y77553D02*
X69233Y77531D01*
X69034Y77397D01*
X68900Y77198D01*
X68878Y77089D01*
X69342D01*
Y77553D01*
D02*
G37*
G36*
X70060Y76835D02*
X69596D01*
Y76371D01*
X69705Y76393D01*
X69904Y76527D01*
X70038Y76726D01*
X70060Y76835D01*
D02*
G37*
G36*
X77856Y74973D02*
X76891D01*
Y74008D01*
X77310D01*
X77856Y74554D01*
Y74973D01*
D02*
G37*
G36*
X76637D02*
X75672D01*
Y74554D01*
X76218Y74008D01*
X76637D01*
Y74973D01*
D02*
G37*
G36*
Y76192D02*
X76218D01*
X75672Y75646D01*
Y75227D01*
X76637D01*
Y76192D01*
D02*
G37*
G36*
X61468Y77431D02*
X61256Y77388D01*
X61077Y77268D01*
X60957Y77089D01*
X60914Y76877D01*
X60957Y76665D01*
X61077Y76486D01*
X61207Y76398D01*
Y76256D01*
X61077Y76168D01*
X60957Y75989D01*
X60914Y75777D01*
X60957Y75565D01*
X61077Y75386D01*
X61256Y75266D01*
X61468Y75223D01*
X61680Y75266D01*
X61859Y75386D01*
X61979Y75565D01*
X62022Y75777D01*
X61979Y75989D01*
X61859Y76168D01*
X61729Y76256D01*
Y76398D01*
X61859Y76486D01*
X61979Y76665D01*
X62022Y76877D01*
X61979Y77089D01*
X61859Y77268D01*
X61680Y77388D01*
X61468Y77431D01*
D02*
G37*
%LPD*%
D25*
X62611Y68199D02*
X64643Y70231D01*
X62611Y65997D02*
Y68199D01*
Y64897D02*
Y65997D01*
Y63797D02*
Y64897D01*
X63711D01*
X61511D02*
X62611D01*
X62992Y53340D02*
X66675Y57023D01*
X50546Y53340D02*
X62992D01*
X49784Y54102D02*
X50546Y53340D01*
X49784Y54102D02*
Y57023D01*
D26*
X56007Y77470D02*
X59563Y73914D01*
X69215D01*
X66929Y59563D02*
X73279D01*
X74568Y60852D01*
Y61614D01*
X51054Y54483D02*
Y57785D01*
X52705Y59436D01*
D27*
X69342Y69596D02*
X69977Y70231D01*
X69342Y68707D02*
Y69596D01*
X65278Y68199D02*
X73914Y76835D01*
Y82550D01*
X76454Y77724D02*
Y82550D01*
X66040Y67310D02*
X76454Y77724D01*
X55118Y71501D02*
X59436Y67183D01*
X55118Y71501D02*
Y82677D01*
X52578Y72136D02*
X58547Y66167D01*
X52578Y72136D02*
Y82677D01*
D29*
X61468Y82550D02*
D03*
X64008D02*
D03*
X76454D02*
D03*
X73914D02*
D03*
D30*
X66548D02*
D03*
X71374D02*
D03*
D31*
X57658Y82677D02*
D03*
X67183Y50825D02*
D03*
D32*
X55118Y82677D02*
D03*
X52578D02*
D03*
X50038D02*
D03*
X64643Y50825D02*
D03*
X62103D02*
D03*
X59563D02*
D03*
D33*
X49474Y75014D02*
D03*
Y72474D02*
D03*
X76962Y61595D02*
D03*
Y64135D02*
D03*
X49403Y61595D02*
D03*
Y64135D02*
D03*
X76764Y72560D02*
D03*
Y75100D02*
D03*
D34*
X66675Y57023D02*
D03*
X69215D02*
D03*
X71755D02*
D03*
X74295D02*
D03*
X76835D02*
D03*
X49784D02*
D03*
X52324D02*
D03*
X54864D02*
D03*
X57404D02*
D03*
X59944D02*
D03*
X55372Y50800D02*
D03*
X52832D02*
D03*
X76962D02*
D03*
X74422D02*
D03*
D35*
X47752Y54483D02*
D03*
X78232Y78994D02*
D03*
D36*
X69215Y73914D02*
D03*
X56007Y77470D02*
D03*
X64643Y70231D02*
D03*
X69977D02*
D03*
X69342Y68707D02*
D03*
X60706Y67437D02*
D03*
X61868Y78848D02*
D03*
X69469Y76962D02*
D03*
X48514Y51943D02*
D03*
X50053Y68819D02*
D03*
X66929Y59563D02*
D03*
X66040Y67310D02*
D03*
X65278Y68199D02*
D03*
X58547Y66167D02*
D03*
X59436Y67183D02*
D03*
X74568Y61614D02*
D03*
X52705Y59436D02*
D03*
X51054Y54483D02*
D03*
D37*
X62611Y64897D02*
D03*
Y63797D02*
D03*
X63711Y64897D02*
D03*
X61511D02*
D03*
X62611Y65997D02*
D03*
D38*
X61468Y76877D02*
D03*
Y75777D02*
D03*
M02*
