G04 Layer_Color=7318015*
%FSLAX43Y43*%
%MOMM*%
G71*
G01*
G75*
%ADD10R,0.950X0.900*%
%ADD11R,0.900X0.950*%
%ADD12R,0.900X0.750*%
G04:AMPARAMS|DCode=14|XSize=0.58mm|YSize=0.24mm|CornerRadius=0.06mm|HoleSize=0mm|Usage=FLASHONLY|Rotation=180.000|XOffset=0mm|YOffset=0mm|HoleType=Round|Shape=RoundedRectangle|*
%AMROUNDEDRECTD14*
21,1,0.580,0.120,0,0,180.0*
21,1,0.460,0.240,0,0,180.0*
1,1,0.120,-0.230,0.060*
1,1,0.120,0.230,0.060*
1,1,0.120,0.230,-0.060*
1,1,0.120,-0.230,-0.060*
%
%ADD14ROUNDEDRECTD14*%
G04:AMPARAMS|DCode=15|XSize=0.58mm|YSize=0.24mm|CornerRadius=0.06mm|HoleSize=0mm|Usage=FLASHONLY|Rotation=90.000|XOffset=0mm|YOffset=0mm|HoleType=Round|Shape=RoundedRectangle|*
%AMROUNDEDRECTD15*
21,1,0.580,0.120,0,0,90.0*
21,1,0.460,0.240,0,0,90.0*
1,1,0.120,0.060,0.230*
1,1,0.120,0.060,-0.230*
1,1,0.120,-0.060,-0.230*
1,1,0.120,-0.060,0.230*
%
%ADD15ROUNDEDRECTD15*%
%ADD16R,2.700X2.700*%
%ADD17R,0.600X0.800*%
%ADD18R,1.000X0.800*%
%ADD19R,0.700X0.900*%
%ADD20R,1.900X0.800*%
%ADD21R,0.400X0.450*%
%ADD22O,0.350X1.350*%
%ADD23R,0.900X0.700*%
%ADD24R,0.300X1.650*%
%ADD45R,1.000X1.000*%
%ADD46R,0.000X0.000*%
D10*
X64389Y75627D02*
D03*
Y77027D02*
D03*
D11*
X61022Y80137D02*
D03*
X62422D02*
D03*
D12*
X58420Y74813D02*
D03*
Y76063D02*
D03*
D14*
X64523Y63647D02*
D03*
Y64147D02*
D03*
Y64647D02*
D03*
Y66147D02*
D03*
Y65647D02*
D03*
Y65147D02*
D03*
X60698Y65647D02*
D03*
X60699Y66147D02*
D03*
X60698Y65147D02*
D03*
Y64647D02*
D03*
Y64147D02*
D03*
Y63647D02*
D03*
D15*
X61361Y62985D02*
D03*
Y66810D02*
D03*
X61861D02*
D03*
X62361D02*
D03*
X62861D02*
D03*
X63361D02*
D03*
X63861D02*
D03*
Y62985D02*
D03*
X63361D02*
D03*
X62861D02*
D03*
X61861D02*
D03*
X62361D02*
D03*
D16*
X62611Y64897D02*
D03*
D17*
X58151Y73406D02*
D03*
X59451D02*
D03*
D18*
X61087Y73140D02*
D03*
Y71640D02*
D03*
D19*
X64023Y73279D02*
D03*
X62723D02*
D03*
X51293Y78105D02*
D03*
X52593D02*
D03*
X76312Y66421D02*
D03*
X77612D02*
D03*
X48753D02*
D03*
X50053D02*
D03*
X75382Y69766D02*
D03*
X74082D02*
D03*
D20*
X61468Y75777D02*
D03*
Y76877D02*
D03*
D21*
X60268Y74852D02*
D03*
X61068D02*
D03*
X61868D02*
D03*
X62668D02*
D03*
Y77802D02*
D03*
X61868D02*
D03*
X61068D02*
D03*
X60268D02*
D03*
D22*
X53878Y75819D02*
D03*
X53228D02*
D03*
X52578D02*
D03*
X51928D02*
D03*
X53878Y71669D02*
D03*
X53228D02*
D03*
X52578D02*
D03*
X51928D02*
D03*
X72360Y71755D02*
D03*
X73010D02*
D03*
X73660D02*
D03*
X74310D02*
D03*
X72360Y75905D02*
D03*
X73010D02*
D03*
X73660D02*
D03*
X74310D02*
D03*
D23*
X55570Y74267D02*
D03*
Y72967D02*
D03*
X50546Y49929D02*
D03*
Y51229D02*
D03*
X72136Y49929D02*
D03*
Y51229D02*
D03*
X68001Y74831D02*
D03*
Y76131D02*
D03*
Y71529D02*
D03*
Y72829D02*
D03*
X70668Y73180D02*
D03*
Y74480D02*
D03*
D24*
X68718Y61614D02*
D03*
X69368D02*
D03*
X70018D02*
D03*
X70668D02*
D03*
X71318D02*
D03*
X71968D02*
D03*
X72618D02*
D03*
X73268D02*
D03*
X68718Y67164D02*
D03*
X69368D02*
D03*
X70018D02*
D03*
X70668D02*
D03*
X71318D02*
D03*
X71968D02*
D03*
X72618D02*
D03*
X73268D02*
D03*
X52589Y61487D02*
D03*
X53239D02*
D03*
X53889D02*
D03*
X54539D02*
D03*
X55189D02*
D03*
X55839D02*
D03*
X56489D02*
D03*
X57139D02*
D03*
X52589Y67037D02*
D03*
X53239D02*
D03*
X53889D02*
D03*
X54539D02*
D03*
X55189D02*
D03*
X55839D02*
D03*
X56489D02*
D03*
X57139D02*
D03*
D45*
X63261Y64247D02*
D03*
X61961D02*
D03*
Y65547D02*
D03*
X63261D02*
D03*
D46*
X62611Y64897D02*
D03*
M02*
