G04 Layer_Physical_Order=1*
G04 Layer_Color=25308*
%FSLAX43Y43*%
%MOMM*%
G71*
G01*
G75*
%ADD10R,0.950X0.900*%
%ADD11R,0.900X0.950*%
%ADD12R,0.900X0.750*%
%ADD13R,2.450X2.450*%
G04:AMPARAMS|DCode=14|XSize=0.58mm|YSize=0.24mm|CornerRadius=0.06mm|HoleSize=0mm|Usage=FLASHONLY|Rotation=180.000|XOffset=0mm|YOffset=0mm|HoleType=Round|Shape=RoundedRectangle|*
%AMROUNDEDRECTD14*
21,1,0.580,0.120,0,0,180.0*
21,1,0.460,0.240,0,0,180.0*
1,1,0.120,-0.230,0.060*
1,1,0.120,0.230,0.060*
1,1,0.120,0.230,-0.060*
1,1,0.120,-0.230,-0.060*
%
%ADD14ROUNDEDRECTD14*%
G04:AMPARAMS|DCode=15|XSize=0.58mm|YSize=0.24mm|CornerRadius=0.06mm|HoleSize=0mm|Usage=FLASHONLY|Rotation=90.000|XOffset=0mm|YOffset=0mm|HoleType=Round|Shape=RoundedRectangle|*
%AMROUNDEDRECTD15*
21,1,0.580,0.120,0,0,90.0*
21,1,0.460,0.240,0,0,90.0*
1,1,0.120,0.060,0.230*
1,1,0.120,0.060,-0.230*
1,1,0.120,-0.060,-0.230*
1,1,0.120,-0.060,0.230*
%
%ADD15ROUNDEDRECTD15*%
%ADD16R,2.700X2.700*%
%ADD17R,0.600X0.800*%
%ADD18R,1.000X0.800*%
%ADD19R,0.700X0.900*%
%ADD20R,1.900X0.800*%
%ADD21R,0.400X0.450*%
%ADD22O,0.350X1.350*%
%ADD23R,0.900X0.700*%
%ADD24R,0.300X1.650*%
%ADD25C,0.500*%
%ADD26C,0.300*%
%ADD27C,0.200*%
%ADD28C,0.360*%
%ADD29C,1.550*%
%ADD30R,1.550X1.550*%
%ADD31R,1.880X1.880*%
%ADD32C,1.880*%
%ADD33P,1.815X8X202.5*%
%ADD34P,1.815X8X292.5*%
%ADD35C,2.500*%
%ADD36C,0.700*%
%ADD37C,0.400*%
%ADD38C,0.686*%
G36*
X80010Y49530D02*
X73813D01*
X73774Y49657D01*
X73803Y49676D01*
X73896Y49769D01*
X73903Y49762D01*
X74941D01*
X75460Y50281D01*
Y51319D01*
X74941Y51838D01*
X73903D01*
X73384Y51319D01*
Y50286D01*
X72786D01*
Y50479D01*
X71486D01*
Y49530D01*
X52223D01*
X52184Y49657D01*
X52213Y49676D01*
X52306Y49769D01*
X52313Y49762D01*
X53351D01*
X53870Y50281D01*
Y51319D01*
X53351Y51838D01*
X52313D01*
X51794Y51319D01*
Y50286D01*
X51196D01*
Y50479D01*
X49896D01*
Y49530D01*
X46355D01*
Y53637D01*
X46482Y53668D01*
X46495Y53643D01*
X46683Y53414D01*
X46912Y53226D01*
X47174Y53087D01*
X47457Y53001D01*
X47625Y52984D01*
Y54483D01*
Y55982D01*
X47457Y55965D01*
X47174Y55879D01*
X46912Y55740D01*
X46683Y55552D01*
X46495Y55323D01*
X46482Y55298D01*
X46355Y55329D01*
Y84455D01*
X80010D01*
Y49530D01*
D02*
G37*
%LPC*%
G36*
X74747Y71628D02*
X74437D01*
Y70843D01*
X74477Y70851D01*
X74619Y70946D01*
X74714Y71088D01*
X74747Y71255D01*
Y71628D01*
D02*
G37*
G36*
X67874Y71402D02*
X67297D01*
Y70925D01*
X67874D01*
Y71402D01*
D02*
G37*
G36*
X68705D02*
X68128D01*
Y70925D01*
X68705D01*
Y71402D01*
D02*
G37*
G36*
X51801Y71542D02*
X51491D01*
Y71169D01*
X51524Y71002D01*
X51619Y70860D01*
X51761Y70765D01*
X51801Y70757D01*
Y71542D01*
D02*
G37*
G36*
X64516Y70822D02*
X64407Y70800D01*
X64208Y70666D01*
X64074Y70467D01*
X64052Y70358D01*
X64516D01*
Y70822D01*
D02*
G37*
G36*
X64770D02*
Y70358D01*
X65234D01*
X65212Y70467D01*
X65078Y70666D01*
X64879Y70800D01*
X64770Y70822D01*
D02*
G37*
G36*
X75986Y70470D02*
X75509D01*
Y69893D01*
X75986D01*
Y70470D01*
D02*
G37*
G36*
X67874Y72133D02*
X67297D01*
Y71656D01*
X67874D01*
Y72133D01*
D02*
G37*
G36*
X59124Y74686D02*
X57716D01*
Y74187D01*
X57716Y74184D01*
X57709Y74060D01*
X57597D01*
Y73533D01*
X58705D01*
Y74057D01*
X58705Y74060D01*
X58712Y74184D01*
X59124D01*
Y74686D01*
D02*
G37*
G36*
X51801Y75692D02*
X51491D01*
Y75319D01*
X51524Y75152D01*
X51619Y75010D01*
X51761Y74915D01*
X51801Y74907D01*
Y75692D01*
D02*
G37*
G36*
X74747Y75778D02*
X74437D01*
Y74993D01*
X74477Y75001D01*
X74619Y75096D01*
X74714Y75238D01*
X74747Y75405D01*
Y75778D01*
D02*
G37*
G36*
X58705Y73279D02*
X58278D01*
Y72752D01*
X58705D01*
Y73279D01*
D02*
G37*
G36*
X51801Y72581D02*
X51761Y72573D01*
X51619Y72478D01*
X51524Y72336D01*
X51491Y72169D01*
Y71796D01*
X51801D01*
Y72581D01*
D02*
G37*
G36*
X74437Y72667D02*
Y71882D01*
X74747D01*
Y72255D01*
X74714Y72422D01*
X74619Y72564D01*
X74477Y72659D01*
X74437Y72667D01*
D02*
G37*
G36*
X58024Y73279D02*
X57597D01*
Y72752D01*
X58024D01*
Y73279D01*
D02*
G37*
G36*
X75255Y70470D02*
X74778D01*
Y69893D01*
X75255D01*
Y70470D01*
D02*
G37*
G36*
X47879Y55982D02*
Y54610D01*
X49251D01*
X49234Y54778D01*
X49148Y55061D01*
X49009Y55323D01*
X48821Y55552D01*
X48592Y55740D01*
X48330Y55879D01*
X48047Y55965D01*
X47879Y55982D01*
D02*
G37*
G36*
X66929Y60124D02*
X66714Y60081D01*
X66532Y59960D01*
X66506Y59920D01*
X65913D01*
X65776Y59893D01*
X65661Y59815D01*
X64391Y58545D01*
X64313Y58430D01*
X64286Y58293D01*
Y51911D01*
X64068Y51821D01*
X63830Y51638D01*
X63647Y51400D01*
X63533Y51123D01*
X63493Y50825D01*
X63533Y50528D01*
X63647Y50251D01*
X63830Y50012D01*
X64068Y49830D01*
X64345Y49715D01*
X64643Y49676D01*
X64941Y49715D01*
X65218Y49830D01*
X65456Y50012D01*
X65639Y50251D01*
X65753Y50528D01*
X65793Y50825D01*
X65753Y51123D01*
X65639Y51400D01*
X65456Y51638D01*
X65218Y51821D01*
X65000Y51911D01*
Y58145D01*
X66061Y59206D01*
X66506D01*
X66532Y59166D01*
X66714Y59045D01*
X66929Y59002D01*
X67144Y59045D01*
X67326Y59166D01*
X67447Y59348D01*
X67490Y59563D01*
X67447Y59778D01*
X67326Y59960D01*
X67144Y60081D01*
X66929Y60124D01*
D02*
G37*
G36*
X49303Y67071D02*
X48203D01*
Y65771D01*
X48396D01*
Y64785D01*
X48413Y64702D01*
X48365Y64654D01*
Y63616D01*
X48884Y63097D01*
X49922D01*
X50441Y63616D01*
Y64654D01*
X49922Y65173D01*
X49110D01*
Y65771D01*
X49303D01*
Y67071D01*
D02*
G37*
G36*
X49251Y54356D02*
X47879D01*
Y52984D01*
X48047Y53001D01*
X48330Y53087D01*
X48592Y53226D01*
X48821Y53414D01*
X49009Y53643D01*
X49148Y53905D01*
X49234Y54188D01*
X49251Y54356D01*
D02*
G37*
G36*
X51054Y55044D02*
X50839Y55001D01*
X50657Y54880D01*
X50536Y54698D01*
X50493Y54483D01*
X50536Y54268D01*
X50657Y54086D01*
X50839Y53965D01*
X51054Y53922D01*
X51269Y53965D01*
X51451Y54086D01*
X51587Y54080D01*
X54341Y51326D01*
X54334Y51319D01*
Y50281D01*
X54853Y49762D01*
X55891D01*
X56410Y50281D01*
Y51319D01*
X55891Y51838D01*
X54853D01*
X54846Y51831D01*
X51941Y54735D01*
X51826Y54813D01*
X51689Y54840D01*
X51477D01*
X51451Y54880D01*
X51269Y55001D01*
X51054Y55044D01*
D02*
G37*
G36*
X48514Y52504D02*
X48299Y52461D01*
X48117Y52340D01*
X47996Y52158D01*
X47953Y51943D01*
X47996Y51728D01*
X48117Y51546D01*
X48299Y51425D01*
X48514Y51382D01*
X48561Y51392D01*
X48976Y50976D01*
X49092Y50899D01*
X49228Y50872D01*
X49896D01*
Y50679D01*
X51196D01*
Y51779D01*
X49896D01*
Y51586D01*
X49376D01*
X49065Y51896D01*
X49075Y51943D01*
X49032Y52158D01*
X48911Y52340D01*
X48729Y52461D01*
X48514Y52504D01*
D02*
G37*
G36*
X68323Y51965D02*
X66043D01*
Y49686D01*
X68323D01*
Y50872D01*
X71486D01*
Y50679D01*
X72786D01*
Y51779D01*
X71486D01*
Y51586D01*
X68323D01*
Y51965D01*
D02*
G37*
G36*
X76862Y67071D02*
X75762D01*
Y65771D01*
X75955D01*
Y64785D01*
X75972Y64702D01*
X75924Y64654D01*
Y63616D01*
X76443Y63097D01*
X77481D01*
X78000Y63616D01*
Y64654D01*
X77481Y65173D01*
X76669D01*
Y65771D01*
X76862D01*
Y67071D01*
D02*
G37*
G36*
X75986Y69639D02*
X75509D01*
Y69062D01*
X75986D01*
Y69639D01*
D02*
G37*
G36*
X64516Y70104D02*
X64052D01*
X64074Y69995D01*
X64208Y69796D01*
X64407Y69662D01*
X64516Y69640D01*
Y70104D01*
D02*
G37*
G36*
X65234D02*
X64770D01*
Y69640D01*
X64879Y69662D01*
X65078Y69796D01*
X65212Y69995D01*
X65234Y70104D01*
D02*
G37*
G36*
X75255Y69639D02*
X74778D01*
Y69062D01*
X75255D01*
Y69639D01*
D02*
G37*
G36*
X50053Y69380D02*
X49838Y69337D01*
X49656Y69216D01*
X49535Y69034D01*
X49492Y68819D01*
X49535Y68604D01*
X49656Y68422D01*
X49696Y68396D01*
Y67071D01*
X49503D01*
Y65771D01*
X50603D01*
Y67071D01*
X50410D01*
Y68396D01*
X50450Y68422D01*
X50571Y68604D01*
X50614Y68819D01*
X50571Y69034D01*
X50450Y69216D01*
X50268Y69337D01*
X50053Y69380D01*
D02*
G37*
G36*
X52462Y66910D02*
X52185D01*
Y65958D01*
X52462D01*
Y66910D01*
D02*
G37*
G36*
Y68116D02*
X52185D01*
Y67164D01*
X52462D01*
Y68116D01*
D02*
G37*
G36*
X67523Y83525D02*
X65573D01*
Y81575D01*
X66089D01*
Y79565D01*
X65335Y78810D01*
X65235Y78662D01*
X65200Y78486D01*
Y77824D01*
X65118Y77731D01*
X64516D01*
Y77027D01*
X64389D01*
Y76900D01*
X63660D01*
Y76323D01*
X63660D01*
X63714Y76277D01*
Y75601D01*
X63699Y75585D01*
X63599Y75437D01*
X63564Y75261D01*
Y75209D01*
X63068D01*
Y75277D01*
X62672D01*
Y75650D01*
X60214D01*
X60147Y75622D01*
X59381Y76387D01*
X59233Y76487D01*
X59070Y76519D01*
Y76638D01*
X57770D01*
Y75547D01*
X57716Y75442D01*
X57716Y75442D01*
Y75442D01*
X57716Y75319D01*
Y74940D01*
X59124D01*
Y75181D01*
X59241Y75230D01*
X59868Y74603D01*
Y74427D01*
X60098D01*
X60268Y74393D01*
X60438Y74427D01*
X60609D01*
Y73865D01*
X59951D01*
Y74006D01*
X58951D01*
Y72806D01*
X59951D01*
Y72947D01*
X60387D01*
Y72540D01*
X61787D01*
Y73076D01*
X61800Y73140D01*
X61787Y73204D01*
Y73415D01*
X61904Y73464D01*
X62173Y73195D01*
Y72629D01*
X63273D01*
Y73929D01*
X62737D01*
X62366Y74300D01*
X62418Y74427D01*
X63068D01*
Y74495D01*
X63564D01*
Y73929D01*
X63473D01*
Y72629D01*
X63564D01*
Y72099D01*
X61787D01*
Y72240D01*
X60387D01*
Y71040D01*
X61787D01*
Y71181D01*
X63766D01*
X63942Y71216D01*
X64090Y71316D01*
X64347Y71573D01*
X64447Y71721D01*
X64482Y71897D01*
Y72629D01*
X64573D01*
Y73929D01*
X64482D01*
Y74977D01*
X65064D01*
Y75189D01*
X65135Y75203D01*
X65283Y75303D01*
X65983Y76003D01*
X66083Y76151D01*
X66118Y76327D01*
Y78296D01*
X66872Y79051D01*
X66972Y79199D01*
X67007Y79375D01*
Y81575D01*
X67523D01*
Y83525D01*
D02*
G37*
G36*
X61468Y83533D02*
X61213Y83500D01*
X60976Y83402D01*
X60773Y83245D01*
X60616Y83042D01*
X60518Y82805D01*
X60485Y82550D01*
X60518Y82295D01*
X60616Y82058D01*
X60773Y81855D01*
X60879Y81773D01*
X60890Y81605D01*
X60698Y81412D01*
X60598Y81264D01*
X60563Y81088D01*
Y80812D01*
X60372D01*
Y80596D01*
X49149D01*
X48973Y80561D01*
X48825Y80461D01*
X46920Y78556D01*
X46820Y78408D01*
X46785Y78232D01*
Y58166D01*
X46820Y57990D01*
X46920Y57842D01*
X48063Y56699D01*
X48211Y56599D01*
X48387Y56564D01*
X48746D01*
Y56504D01*
X49265Y55985D01*
X50303D01*
X50822Y56504D01*
Y57542D01*
X50303Y58061D01*
X50171D01*
Y58768D01*
X52122Y60718D01*
X52239Y60669D01*
Y60462D01*
X52882D01*
Y60118D01*
X52752Y59987D01*
X52705Y59997D01*
X52490Y59954D01*
X52308Y59833D01*
X52187Y59651D01*
X52144Y59436D01*
X52187Y59221D01*
X52308Y59039D01*
X52490Y58918D01*
X52705Y58875D01*
X52920Y58918D01*
X53102Y59039D01*
X53223Y59221D01*
X53266Y59436D01*
X53256Y59483D01*
X53405Y59631D01*
X53532Y59579D01*
Y58736D01*
X52850Y58054D01*
X52843Y58061D01*
X51805D01*
X51286Y57542D01*
Y56504D01*
X51805Y55985D01*
X52843D01*
X53362Y56504D01*
Y57542D01*
X53355Y57549D01*
X54055Y58249D01*
X54182Y58197D01*
Y57898D01*
X53826Y57542D01*
Y56504D01*
X54345Y55985D01*
X55383D01*
X55902Y56504D01*
Y57542D01*
X55383Y58061D01*
X54896D01*
Y59355D01*
X55023Y59407D01*
X56627Y57803D01*
X56366Y57542D01*
Y56504D01*
X56885Y55985D01*
X57923D01*
X58442Y56504D01*
Y57542D01*
X57923Y58061D01*
X57378D01*
X56869Y58571D01*
X56921Y58698D01*
X57764D01*
X58913Y57549D01*
X58906Y57542D01*
Y56504D01*
X59425Y55985D01*
X60463D01*
X60982Y56504D01*
Y57542D01*
X60463Y58061D01*
X59425D01*
X59418Y58054D01*
X58164Y59307D01*
X58049Y59385D01*
X57912Y59412D01*
X56917D01*
X56727Y59602D01*
X56761Y59734D01*
X56769Y59739D01*
X56896Y59714D01*
X58018D01*
X59057Y58676D01*
X59172Y58598D01*
X59309Y58571D01*
X61193D01*
X61873Y57891D01*
Y53640D01*
X60079Y51846D01*
X59861Y51936D01*
X59563Y51975D01*
X59265Y51936D01*
X58988Y51821D01*
X58750Y51638D01*
X58567Y51400D01*
X58453Y51123D01*
X58413Y50825D01*
X58453Y50528D01*
X58567Y50251D01*
X58750Y50012D01*
X58988Y49830D01*
X59265Y49715D01*
X59563Y49676D01*
X59861Y49715D01*
X60138Y49830D01*
X60376Y50012D01*
X60559Y50251D01*
X60673Y50528D01*
X60713Y50825D01*
X60673Y51123D01*
X60583Y51341D01*
X62482Y53240D01*
X62560Y53356D01*
X62587Y53492D01*
Y57794D01*
X62714Y57858D01*
X62762Y57822D01*
Y51989D01*
X62619Y51846D01*
X62401Y51936D01*
X62103Y51975D01*
X61805Y51936D01*
X61528Y51821D01*
X61290Y51638D01*
X61107Y51400D01*
X60993Y51123D01*
X60953Y50825D01*
X60993Y50528D01*
X61107Y50251D01*
X61290Y50012D01*
X61528Y49830D01*
X61805Y49715D01*
X62103Y49676D01*
X62401Y49715D01*
X62678Y49830D01*
X62916Y50012D01*
X63099Y50251D01*
X63213Y50528D01*
X63253Y50825D01*
X63213Y51123D01*
X63123Y51341D01*
X63371Y51589D01*
X63449Y51705D01*
X63476Y51841D01*
Y58039D01*
X63449Y58176D01*
X63371Y58291D01*
X61847Y59815D01*
X61732Y59893D01*
X61595Y59920D01*
X59838D01*
X58018Y61739D01*
X57903Y61817D01*
X57766Y61844D01*
X57489D01*
Y62512D01*
X52239D01*
Y61854D01*
X52195Y61845D01*
X52069Y61761D01*
X49510Y59202D01*
X49426Y59076D01*
X49397Y58928D01*
Y58061D01*
X49265D01*
X48746Y57542D01*
Y57482D01*
X48577D01*
X47703Y58356D01*
Y78042D01*
X49339Y79678D01*
X60372D01*
Y79462D01*
X60609D01*
Y78227D01*
X59868D01*
Y77377D01*
X60264D01*
Y77004D01*
X62672D01*
Y77323D01*
X63122D01*
Y77675D01*
X62668D01*
Y77929D01*
X63127D01*
Y80010D01*
X62422D01*
Y80264D01*
X63127D01*
Y81147D01*
X63589Y81610D01*
X63739Y81547D01*
X63881Y81529D01*
Y82423D01*
X62987D01*
X63001Y82318D01*
X62344Y81661D01*
X62244Y81513D01*
X62209Y81337D01*
Y80866D01*
X61718D01*
Y80866D01*
X61692Y80835D01*
X61598Y80844D01*
X61550Y80967D01*
X61792Y81210D01*
X61892Y81358D01*
X61927Y81534D01*
Y81685D01*
X61960Y81698D01*
X62163Y81855D01*
X62320Y82058D01*
X62418Y82295D01*
X62451Y82550D01*
X62418Y82805D01*
X62320Y83042D01*
X62163Y83245D01*
X61960Y83402D01*
X61723Y83500D01*
X61468Y83533D01*
D02*
G37*
G36*
X55118Y83827D02*
X54820Y83787D01*
X54543Y83673D01*
X54305Y83490D01*
X54122Y83252D01*
X54008Y82975D01*
X53968Y82677D01*
X54008Y82379D01*
X54122Y82102D01*
X54305Y81864D01*
X54543Y81681D01*
X54820Y81567D01*
X55118Y81527D01*
X55416Y81567D01*
X55693Y81681D01*
X55931Y81864D01*
X56114Y82102D01*
X56228Y82379D01*
X56268Y82677D01*
X56228Y82975D01*
X56114Y83252D01*
X55931Y83490D01*
X55693Y83673D01*
X55416Y83787D01*
X55118Y83827D01*
D02*
G37*
G36*
X58798Y83817D02*
X56518D01*
Y81537D01*
X58798D01*
Y83817D01*
D02*
G37*
G36*
X65029Y82423D02*
X64135D01*
Y81529D01*
X64277Y81547D01*
X64527Y81651D01*
X64742Y81816D01*
X64907Y82031D01*
X65011Y82281D01*
X65029Y82423D01*
D02*
G37*
G36*
X71247D02*
X70345D01*
Y81521D01*
X71247D01*
Y82423D01*
D02*
G37*
G36*
X51225Y82550D02*
X50165D01*
Y81490D01*
X50350Y81514D01*
X50640Y81634D01*
X50889Y81826D01*
X51081Y82075D01*
X51201Y82365D01*
X51225Y82550D01*
D02*
G37*
G36*
X52578Y83827D02*
X52280Y83787D01*
X52003Y83673D01*
X51765Y83490D01*
X51582Y83252D01*
X51468Y82975D01*
X51428Y82677D01*
X51468Y82379D01*
X51582Y82102D01*
X51765Y81864D01*
X52003Y81681D01*
X52280Y81567D01*
X52578Y81527D01*
X52876Y81567D01*
X53153Y81681D01*
X53391Y81864D01*
X53574Y82102D01*
X53688Y82379D01*
X53728Y82677D01*
X53688Y82975D01*
X53574Y83252D01*
X53391Y83490D01*
X53153Y83673D01*
X52876Y83787D01*
X52578Y83827D01*
D02*
G37*
G36*
X72403Y82423D02*
X71501D01*
Y81521D01*
X72403D01*
Y82423D01*
D02*
G37*
G36*
Y83579D02*
X71501D01*
Y82677D01*
X72403D01*
Y83579D01*
D02*
G37*
G36*
X71247D02*
X70345D01*
Y82677D01*
X71247D01*
Y83579D01*
D02*
G37*
G36*
X50165Y83864D02*
Y82804D01*
X51225D01*
X51201Y82989D01*
X51081Y83279D01*
X50889Y83528D01*
X50640Y83720D01*
X50350Y83840D01*
X50165Y83864D01*
D02*
G37*
G36*
X49911D02*
X49726Y83840D01*
X49436Y83720D01*
X49187Y83528D01*
X48995Y83279D01*
X48875Y82989D01*
X48851Y82804D01*
X49911D01*
Y83864D01*
D02*
G37*
G36*
X76454Y83533D02*
X76199Y83500D01*
X75962Y83402D01*
X75759Y83245D01*
X75602Y83042D01*
X75504Y82805D01*
X75471Y82550D01*
X75504Y82295D01*
X75602Y82058D01*
X75759Y81855D01*
X75962Y81698D01*
X76199Y81600D01*
X76454Y81567D01*
X76709Y81600D01*
X76946Y81698D01*
X77149Y81855D01*
X77306Y82058D01*
X77404Y82295D01*
X77437Y82550D01*
X77404Y82805D01*
X77306Y83042D01*
X77149Y83245D01*
X76946Y83402D01*
X76709Y83500D01*
X76454Y83533D01*
D02*
G37*
G36*
X73914D02*
X73659Y83500D01*
X73422Y83402D01*
X73219Y83245D01*
X73062Y83042D01*
X72964Y82805D01*
X72931Y82550D01*
X72964Y82295D01*
X73062Y82058D01*
X73219Y81855D01*
X73422Y81698D01*
X73659Y81600D01*
X73914Y81567D01*
X74169Y81600D01*
X74406Y81698D01*
X74609Y81855D01*
X74766Y82058D01*
X74864Y82295D01*
X74897Y82550D01*
X74864Y82805D01*
X74766Y83042D01*
X74609Y83245D01*
X74406Y83402D01*
X74169Y83500D01*
X73914Y83533D01*
D02*
G37*
G36*
X64135Y83571D02*
Y82677D01*
X65029D01*
X65011Y82819D01*
X64907Y83069D01*
X64742Y83284D01*
X64527Y83449D01*
X64277Y83553D01*
X64135Y83571D01*
D02*
G37*
G36*
X63881D02*
X63739Y83553D01*
X63489Y83449D01*
X63274Y83284D01*
X63109Y83069D01*
X63005Y82819D01*
X62987Y82677D01*
X63881D01*
Y83571D01*
D02*
G37*
G36*
X64262Y77731D02*
X63660D01*
Y77154D01*
X64262D01*
Y77731D01*
D02*
G37*
G36*
X53143Y78755D02*
X52043D01*
Y77455D01*
X52221D01*
Y76774D01*
X52109Y76714D01*
X52095Y76723D01*
X52055Y76731D01*
Y75819D01*
Y74907D01*
X52095Y74915D01*
X52109Y74924D01*
X52221Y74864D01*
Y74697D01*
X51922Y74398D01*
X51456D01*
X50587Y75266D01*
X50512Y75317D01*
Y75533D01*
X49993Y76052D01*
X48955D01*
X48436Y75533D01*
Y74495D01*
X48955Y73976D01*
X49993D01*
X50431Y74414D01*
X51056Y73789D01*
X51171Y73711D01*
X51308Y73684D01*
X52070D01*
X52207Y73711D01*
X52322Y73789D01*
X52830Y74297D01*
X52908Y74412D01*
X52935Y74549D01*
Y74911D01*
X53062Y74979D01*
X53082Y74966D01*
X53228Y74937D01*
X53374Y74966D01*
X53468Y75029D01*
X53553Y75041D01*
X53638Y75029D01*
X53732Y74966D01*
X53878Y74937D01*
X54024Y74966D01*
X54148Y75049D01*
X54272Y75061D01*
X54920Y74412D01*
Y73717D01*
X56220D01*
Y74817D01*
X55525D01*
X54270Y76071D01*
X54260Y76078D01*
Y76319D01*
X54231Y76465D01*
X54148Y76589D01*
X54024Y76672D01*
X53878Y76701D01*
X53732Y76672D01*
X53718Y76663D01*
X53610Y76718D01*
X53599Y76843D01*
X53869Y77113D01*
X55584D01*
X55610Y77073D01*
X55792Y76952D01*
X56007Y76909D01*
X56222Y76952D01*
X56404Y77073D01*
X56525Y77255D01*
X56568Y77470D01*
X56525Y77685D01*
X56404Y77867D01*
X56222Y77988D01*
X56007Y78031D01*
X55792Y77988D01*
X55610Y77867D01*
X55584Y77827D01*
X53721D01*
X53584Y77800D01*
X53469Y77722D01*
X53270Y77524D01*
X53143Y77576D01*
Y78755D01*
D02*
G37*
G36*
X51897Y77978D02*
X51420D01*
Y77401D01*
X51897D01*
Y77978D01*
D02*
G37*
G36*
X51166D02*
X50689D01*
Y77401D01*
X51166D01*
Y77978D01*
D02*
G37*
G36*
X72898Y78411D02*
X72898Y78411D01*
X67564D01*
X67447Y78388D01*
X67348Y78321D01*
X66586Y77559D01*
X66519Y77460D01*
X66496Y77343D01*
X66496Y77343D01*
Y67819D01*
X66369Y67752D01*
X66255Y67828D01*
X66040Y67871D01*
X65847Y67832D01*
X65793Y67885D01*
X65763Y67935D01*
X65796Y67984D01*
X65839Y68199D01*
X65796Y68414D01*
X65675Y68596D01*
X65493Y68717D01*
X65278Y68760D01*
X65063Y68717D01*
X64881Y68596D01*
X64760Y68414D01*
X64717Y68199D01*
X64760Y67984D01*
X64881Y67802D01*
X64972Y67742D01*
Y66580D01*
X64845Y66509D01*
X64754Y66527D01*
X64650D01*
Y66147D01*
X64396D01*
Y66527D01*
X64305D01*
X64283Y66535D01*
X64186Y66635D01*
Y67039D01*
X64167Y67136D01*
Y69108D01*
X64167Y69108D01*
X64144Y69225D01*
X64077Y69324D01*
X64077Y69324D01*
X63335Y70066D01*
X63236Y70133D01*
X63119Y70156D01*
X63119Y70156D01*
X53213D01*
X52884Y70485D01*
Y70798D01*
X53011Y70863D01*
X53082Y70816D01*
X53228Y70787D01*
X53374Y70816D01*
X53468Y70879D01*
X53553Y70891D01*
X53638Y70879D01*
X53732Y70816D01*
X53878Y70787D01*
X54024Y70816D01*
X54148Y70899D01*
X54231Y71023D01*
X54260Y71169D01*
Y71312D01*
X54272D01*
X54409Y71339D01*
X54524Y71417D01*
X55525Y72417D01*
X56220D01*
Y73517D01*
X54920D01*
Y72822D01*
X54370Y72271D01*
X54232Y72313D01*
X54231Y72315D01*
X54148Y72439D01*
X54024Y72522D01*
X53878Y72551D01*
X53732Y72522D01*
X53712Y72509D01*
X53585Y72577D01*
Y72883D01*
X53558Y73020D01*
X53480Y73135D01*
X53211Y73404D01*
X53096Y73482D01*
X52959Y73509D01*
X50152D01*
X50022Y73483D01*
X49993Y73512D01*
X48955D01*
X48436Y72993D01*
Y71955D01*
X48955Y71436D01*
X49993D01*
X50512Y71955D01*
Y72795D01*
X52811D01*
X52871Y72735D01*
Y72577D01*
X52744Y72509D01*
X52724Y72522D01*
X52578Y72551D01*
X52432Y72522D01*
X52383Y72489D01*
X52237Y72478D01*
X52095Y72573D01*
X52055Y72581D01*
Y71669D01*
Y70757D01*
X52095Y70765D01*
X52145Y70798D01*
X52272Y70730D01*
Y70358D01*
X52272Y70358D01*
X52295Y70241D01*
X52362Y70142D01*
X52856Y69648D01*
X52846Y69590D01*
X52810Y69521D01*
X52451D01*
X52334Y69498D01*
X52235Y69431D01*
X51092Y68288D01*
X51025Y68189D01*
X51002Y68072D01*
X51002Y68072D01*
Y63627D01*
X49965Y62590D01*
X49922Y62633D01*
X48884D01*
X48365Y62114D01*
Y61076D01*
X48884Y60557D01*
X49922D01*
X50441Y61076D01*
Y62114D01*
X50398Y62157D01*
X51524Y63284D01*
X51591Y63383D01*
X51614Y63500D01*
Y67945D01*
X52578Y68909D01*
X55484D01*
X55532Y68792D01*
X54973Y68232D01*
X54906Y68133D01*
X54892Y68062D01*
X52993D01*
Y68116D01*
X52716D01*
Y67037D01*
Y65958D01*
X52933D01*
Y65379D01*
X52933Y65379D01*
X52956Y65262D01*
X53023Y65163D01*
X55410Y62776D01*
X55410Y62776D01*
X55469Y62736D01*
X55509Y62709D01*
X55626Y62686D01*
X61050D01*
X61056Y62653D01*
X61114Y62567D01*
X61200Y62510D01*
X61301Y62489D01*
X61421D01*
X61428Y62491D01*
X61555Y62390D01*
Y61075D01*
X61555Y61075D01*
X61578Y60958D01*
X61645Y60859D01*
X62268Y60236D01*
X62268Y60236D01*
X62367Y60169D01*
X62484Y60146D01*
X62484Y60146D01*
X65786D01*
X65786Y60146D01*
X65903Y60169D01*
X66002Y60236D01*
X68251Y62484D01*
X68368Y62435D01*
Y61648D01*
X68361Y61614D01*
Y59214D01*
X67201Y58054D01*
X67194Y58061D01*
X66156D01*
X65637Y57542D01*
Y56504D01*
X66156Y55985D01*
X67194D01*
X67713Y56504D01*
Y57542D01*
X67706Y57549D01*
X68884Y58727D01*
X69011Y58675D01*
Y58061D01*
X68696D01*
X68177Y57542D01*
Y56504D01*
X68696Y55985D01*
X69734D01*
X70253Y56504D01*
Y57542D01*
X69734Y58061D01*
X69725D01*
Y58369D01*
X69852Y58421D01*
X70724Y57549D01*
X70717Y57542D01*
Y56504D01*
X71236Y55985D01*
X72274D01*
X72793Y56504D01*
Y57542D01*
X72274Y58061D01*
X71236D01*
X71229Y58054D01*
X70375Y58908D01*
Y59116D01*
X70502Y59168D01*
X71122Y58549D01*
X71237Y58471D01*
X71374Y58444D01*
X72369D01*
X73264Y57549D01*
X73257Y57542D01*
Y56504D01*
X73776Y55985D01*
X74814D01*
X75333Y56504D01*
Y57542D01*
X74814Y58061D01*
X73776D01*
X73769Y58054D01*
X72988Y58835D01*
X73036Y58952D01*
X74401D01*
X75804Y57549D01*
X75797Y57542D01*
Y56504D01*
X76316Y55985D01*
X77354D01*
X77873Y56504D01*
Y57542D01*
X77354Y58061D01*
X76316D01*
X76309Y58054D01*
X74903Y59460D01*
X74955Y59587D01*
X75163D01*
X76329Y58422D01*
X76444Y58344D01*
X76581Y58317D01*
X77830D01*
X78256Y57891D01*
Y52599D01*
X77488Y51831D01*
X77481Y51838D01*
X76443D01*
X75924Y51319D01*
Y50281D01*
X76443Y49762D01*
X77481D01*
X78000Y50281D01*
Y51319D01*
X77993Y51326D01*
X78865Y52199D01*
X78943Y52314D01*
X78970Y52451D01*
Y58039D01*
X78943Y58176D01*
X78865Y58291D01*
X78230Y58926D01*
X78115Y59004D01*
X77978Y59031D01*
X76729D01*
X75563Y60196D01*
X75448Y60274D01*
X75311Y60301D01*
X73046D01*
X72975Y60372D01*
Y60589D01*
X73618D01*
Y61257D01*
X74145D01*
X74171Y61217D01*
X74353Y61096D01*
X74568Y61053D01*
X74783Y61096D01*
X74965Y61217D01*
X75086Y61399D01*
X75129Y61614D01*
X75086Y61829D01*
X74965Y62011D01*
X74783Y62132D01*
X74568Y62175D01*
X74353Y62132D01*
X74171Y62011D01*
X74145Y61971D01*
X73618D01*
Y62639D01*
X68659D01*
X68596Y62766D01*
X68632Y62813D01*
X70866D01*
X70866Y62813D01*
X70983Y62836D01*
X71082Y62903D01*
X73484Y65305D01*
X73484Y65305D01*
X73524Y65364D01*
X73551Y65404D01*
X73574Y65521D01*
Y66139D01*
X73618D01*
Y68075D01*
Y68075D01*
X73618Y68084D01*
X73618Y68121D01*
Y68126D01*
Y68137D01*
X73623Y68139D01*
X73632Y68143D01*
X73644Y68148D01*
X73695Y68169D01*
X73695D01*
X73745Y68190D01*
X74243Y67691D01*
Y64008D01*
X74243Y64008D01*
X74266Y63891D01*
X74333Y63792D01*
X75967Y62157D01*
X75924Y62114D01*
Y61076D01*
X76443Y60557D01*
X77481D01*
X78000Y61076D01*
Y62114D01*
X77481Y62633D01*
X76443D01*
X76400Y62590D01*
X74855Y64135D01*
Y67818D01*
X74855Y67818D01*
X74832Y67935D01*
X74765Y68034D01*
X74765Y68034D01*
X73876Y68923D01*
X73777Y68990D01*
X73793Y69116D01*
X74632D01*
Y70416D01*
X74017D01*
Y70800D01*
X74129Y70860D01*
X74143Y70851D01*
X74183Y70843D01*
Y71755D01*
Y72667D01*
X74143Y72659D01*
X74129Y72650D01*
X74017Y72710D01*
Y73131D01*
X74062Y73176D01*
X74655D01*
X75524Y72308D01*
X75639Y72230D01*
X75726Y72213D01*
Y72041D01*
X76245Y71522D01*
X77283D01*
X77802Y72041D01*
Y73079D01*
X77283Y73598D01*
X76245D01*
X75744Y73097D01*
X75055Y73785D01*
X74940Y73863D01*
X74803Y73890D01*
X73914D01*
X73777Y73863D01*
X73662Y73785D01*
X73408Y73531D01*
X73330Y73416D01*
X73303Y73279D01*
Y72663D01*
X73176Y72595D01*
X73156Y72608D01*
X73010Y72637D01*
X72864Y72608D01*
X72770Y72545D01*
X72685Y72533D01*
X72600Y72545D01*
X72506Y72608D01*
X72360Y72637D01*
X72214Y72608D01*
X72090Y72525D01*
X72057Y72476D01*
X71898Y72455D01*
X71318Y73035D01*
Y73730D01*
X70018D01*
Y72630D01*
X70713D01*
X71841Y71503D01*
X71956Y71425D01*
X71978Y71421D01*
Y71255D01*
X72007Y71109D01*
X72090Y70985D01*
X72214Y70902D01*
X72360Y70873D01*
X72506Y70902D01*
X72520Y70911D01*
X72628Y70856D01*
X72639Y70731D01*
X72496Y70588D01*
X71395D01*
X68959Y73023D01*
X68844Y73101D01*
X68707Y73128D01*
X68651D01*
Y73379D01*
X68460D01*
Y73557D01*
X68792D01*
X68818Y73517D01*
X69000Y73396D01*
X69215Y73353D01*
X69430Y73396D01*
X69612Y73517D01*
X69733Y73699D01*
X69776Y73914D01*
X69733Y74129D01*
X69612Y74311D01*
X69430Y74432D01*
X69215Y74475D01*
X69000Y74432D01*
X68818Y74311D01*
X68792Y74271D01*
X68774D01*
X68651Y74281D01*
Y75381D01*
X67351D01*
Y74281D01*
X67542D01*
Y73914D01*
Y73379D01*
X67351D01*
Y72279D01*
X68590D01*
X68604Y72260D01*
X68600Y72233D01*
X68539Y72133D01*
X68128D01*
Y71656D01*
X68705D01*
Y72015D01*
Y72015D01*
X68705Y72024D01*
X68705Y72071D01*
Y72085D01*
Y72089D01*
Y72089D01*
X68713Y72093D01*
X68715Y72094D01*
X68722Y72097D01*
X68722Y72097D01*
X68748Y72110D01*
X68754Y72112D01*
X68790Y72130D01*
X68790Y72130D01*
X68803Y72136D01*
X68826Y72147D01*
X70014Y70959D01*
X69952Y70842D01*
X69741Y70800D01*
X69542Y70666D01*
X69408Y70467D01*
X69386Y70358D01*
X69977D01*
Y70104D01*
X69386D01*
X69408Y69995D01*
X69470Y69902D01*
X69403Y69775D01*
X68707D01*
X68590Y69752D01*
X68550Y69725D01*
X68491Y69685D01*
X68491Y69685D01*
X67475Y68669D01*
X67408Y68570D01*
X67385Y68453D01*
X67385Y68453D01*
Y66675D01*
X67225Y66515D01*
X67108Y66563D01*
Y77216D01*
X67691Y77799D01*
X72771D01*
X73354Y77216D01*
Y76776D01*
X73227Y76711D01*
X73156Y76758D01*
X73010Y76787D01*
X72864Y76758D01*
X72740Y76675D01*
X72630D01*
X72506Y76758D01*
X72360Y76787D01*
X72214Y76758D01*
X72090Y76675D01*
X72007Y76551D01*
X71978Y76405D01*
Y76027D01*
X70980Y75030D01*
X70018D01*
Y73930D01*
X71318D01*
Y74358D01*
X72092Y75133D01*
X72214Y75052D01*
X72360Y75023D01*
X72506Y75052D01*
X72526Y75065D01*
X72653Y74997D01*
Y74691D01*
X72680Y74554D01*
X72758Y74439D01*
X73027Y74170D01*
X73142Y74092D01*
X73279Y74065D01*
X76086D01*
X76216Y74091D01*
X76245Y74062D01*
X77283D01*
X77290Y74069D01*
X78510Y72849D01*
Y69998D01*
X77360Y68847D01*
X77282Y68732D01*
X77255Y68595D01*
Y67071D01*
X77062D01*
Y65771D01*
X78162D01*
Y67071D01*
X77969D01*
Y68447D01*
X79119Y69598D01*
X79197Y69713D01*
X79224Y69850D01*
Y72997D01*
X79197Y73134D01*
X79119Y73249D01*
X77795Y74574D01*
X77802Y74581D01*
Y75619D01*
X77283Y76138D01*
X76245D01*
X75726Y75619D01*
Y74779D01*
X73427D01*
X73367Y74839D01*
Y74997D01*
X73494Y75065D01*
X73514Y75052D01*
X73660Y75023D01*
X73806Y75052D01*
X73855Y75085D01*
X74001Y75096D01*
X74143Y75001D01*
X74183Y74993D01*
Y75905D01*
Y76817D01*
X74143Y76809D01*
X74093Y76776D01*
X73966Y76844D01*
Y77343D01*
X73943Y77460D01*
X73876Y77559D01*
X73114Y78321D01*
X73015Y78388D01*
X72898Y78411D01*
D02*
G37*
G36*
X51801Y76731D02*
X51761Y76723D01*
X51619Y76628D01*
X51524Y76486D01*
X51491Y76319D01*
Y75946D01*
X51801D01*
Y76731D01*
D02*
G37*
G36*
X62672Y76750D02*
X60264D01*
Y76223D01*
Y75904D01*
X62672D01*
Y76223D01*
Y76750D01*
D02*
G37*
G36*
X69469Y77523D02*
X69254Y77480D01*
X69072Y77359D01*
X69046Y77319D01*
X68832D01*
X68695Y77292D01*
X68580Y77214D01*
X68046Y76681D01*
X67351D01*
Y75581D01*
X68651D01*
Y76276D01*
X68935Y76561D01*
X69072Y76565D01*
X69254Y76444D01*
X69469Y76401D01*
X69684Y76444D01*
X69866Y76565D01*
X69987Y76747D01*
X70030Y76962D01*
X69987Y77177D01*
X69866Y77359D01*
X69684Y77480D01*
X69469Y77523D01*
D02*
G37*
G36*
X74437Y76817D02*
Y76032D01*
X74747D01*
Y76405D01*
X74714Y76572D01*
X74619Y76714D01*
X74477Y76809D01*
X74437Y76817D01*
D02*
G37*
G36*
X78359Y80493D02*
Y79121D01*
X79731D01*
X79714Y79289D01*
X79628Y79572D01*
X79489Y79834D01*
X79301Y80063D01*
X79072Y80251D01*
X78810Y80390D01*
X78527Y80476D01*
X78359Y80493D01*
D02*
G37*
G36*
X51897Y78809D02*
X51420D01*
Y78232D01*
X51897D01*
Y78809D01*
D02*
G37*
G36*
X78105Y80493D02*
X77937Y80476D01*
X77654Y80390D01*
X77392Y80251D01*
X77163Y80063D01*
X76975Y79834D01*
X76836Y79572D01*
X76750Y79289D01*
X76733Y79121D01*
X78105D01*
Y80493D01*
D02*
G37*
G36*
X51166Y78809D02*
X50689D01*
Y78232D01*
X51166D01*
Y78809D01*
D02*
G37*
G36*
X78105Y78867D02*
X76733D01*
X76750Y78699D01*
X76836Y78416D01*
X76975Y78154D01*
X77163Y77925D01*
X77392Y77737D01*
X77654Y77598D01*
X77937Y77512D01*
X78105Y77495D01*
Y78867D01*
D02*
G37*
G36*
X79731D02*
X78359D01*
Y77495D01*
X78527Y77512D01*
X78810Y77598D01*
X79072Y77737D01*
X79301Y77925D01*
X79489Y78154D01*
X79628Y78416D01*
X79714Y78699D01*
X79731Y78867D01*
D02*
G37*
G36*
X49911Y82550D02*
X48851D01*
X48875Y82365D01*
X48995Y82075D01*
X49187Y81826D01*
X49436Y81634D01*
X49726Y81514D01*
X49911Y81490D01*
Y82550D01*
D02*
G37*
%LPD*%
G36*
X60262Y67762D02*
X60188Y67652D01*
X60145Y67437D01*
X60188Y67222D01*
X60309Y67040D01*
X60491Y66919D01*
X60706Y66876D01*
X60877Y66910D01*
X61004Y66834D01*
Y66810D01*
X61031Y66673D01*
X61036Y66666D01*
Y66579D01*
X61036Y66578D01*
X60930Y66472D01*
X60929Y66472D01*
X60579D01*
X59975Y67076D01*
X59997Y67183D01*
X59954Y67398D01*
X59833Y67580D01*
X59651Y67701D01*
X59436Y67744D01*
X59221Y67701D01*
X59039Y67580D01*
X58918Y67398D01*
X58875Y67183D01*
X58918Y66968D01*
X59039Y66786D01*
X59221Y66665D01*
X59436Y66622D01*
X59543Y66644D01*
X60116Y66070D01*
X60068Y65953D01*
X59194D01*
X59086Y66060D01*
X59108Y66167D01*
X59065Y66382D01*
X58944Y66564D01*
X58762Y66685D01*
X58547Y66728D01*
X58332Y66685D01*
X58150Y66564D01*
X58029Y66382D01*
X57986Y66167D01*
X58029Y65952D01*
X58150Y65770D01*
X58332Y65649D01*
X58547Y65606D01*
X58592Y65615D01*
X58623Y65580D01*
X58564Y65453D01*
X57789D01*
X57445Y65797D01*
Y66012D01*
X57489D01*
Y67889D01*
X60194D01*
X60262Y67762D01*
D02*
G37*
G36*
X72682Y68491D02*
X72781Y68424D01*
X72898Y68401D01*
X73533D01*
X73619Y68316D01*
X73598Y68266D01*
X73598Y68266D01*
X73577Y68215D01*
X73572Y68203D01*
X73568Y68194D01*
X73566Y68189D01*
X73555D01*
X73550Y68189D01*
X73513Y68189D01*
X73504D01*
X73504D01*
X69865D01*
X69807Y68316D01*
X69911Y68471D01*
X69933Y68580D01*
X69342D01*
Y68834D01*
X69933D01*
X69911Y68943D01*
X69849Y69036D01*
X69916Y69163D01*
X72009D01*
X72682Y68491D01*
D02*
G37*
D10*
X64389Y75627D02*
D03*
Y77027D02*
D03*
D11*
X61022Y80137D02*
D03*
X62422D02*
D03*
D12*
X58420Y74813D02*
D03*
Y76063D02*
D03*
D13*
X62611Y64897D02*
D03*
D14*
X64523Y63647D02*
D03*
Y64147D02*
D03*
Y64647D02*
D03*
Y66147D02*
D03*
Y65647D02*
D03*
Y65147D02*
D03*
X60698Y65647D02*
D03*
X60699Y66147D02*
D03*
X60698Y65147D02*
D03*
Y64647D02*
D03*
Y64147D02*
D03*
Y63647D02*
D03*
D15*
X61361Y62985D02*
D03*
Y66810D02*
D03*
X61861D02*
D03*
X62361D02*
D03*
X62861D02*
D03*
X63361D02*
D03*
X63861D02*
D03*
Y62985D02*
D03*
X63361D02*
D03*
X62861D02*
D03*
X61861D02*
D03*
X62361D02*
D03*
D16*
X62611Y64897D02*
D03*
D17*
X58151Y73406D02*
D03*
X59451D02*
D03*
D18*
X61087Y73140D02*
D03*
Y71640D02*
D03*
D19*
X64023Y73279D02*
D03*
X62723D02*
D03*
X51293Y78105D02*
D03*
X52593D02*
D03*
X76312Y66421D02*
D03*
X77612D02*
D03*
X48753D02*
D03*
X50053D02*
D03*
X75382Y69766D02*
D03*
X74082D02*
D03*
D20*
X61468Y75777D02*
D03*
Y76877D02*
D03*
D21*
X60268Y74852D02*
D03*
X61068D02*
D03*
X61868D02*
D03*
X62668D02*
D03*
Y77802D02*
D03*
X61868D02*
D03*
X61068D02*
D03*
X60268D02*
D03*
D22*
X53878Y75819D02*
D03*
X53228D02*
D03*
X52578D02*
D03*
X51928D02*
D03*
X53878Y71669D02*
D03*
X53228D02*
D03*
X52578D02*
D03*
X51928D02*
D03*
X72360Y71755D02*
D03*
X73010D02*
D03*
X73660D02*
D03*
X74310D02*
D03*
X72360Y75905D02*
D03*
X73010D02*
D03*
X73660D02*
D03*
X74310D02*
D03*
D23*
X55570Y74267D02*
D03*
Y72967D02*
D03*
X50546Y49929D02*
D03*
Y51229D02*
D03*
X72136Y49929D02*
D03*
Y51229D02*
D03*
X68001Y74831D02*
D03*
Y76131D02*
D03*
Y71529D02*
D03*
Y72829D02*
D03*
X70668Y73180D02*
D03*
Y74480D02*
D03*
D24*
X68718Y61614D02*
D03*
X69368D02*
D03*
X70018D02*
D03*
X70668D02*
D03*
X71318D02*
D03*
X71968D02*
D03*
X72618D02*
D03*
X73268D02*
D03*
X68718Y67164D02*
D03*
X69368D02*
D03*
X70018D02*
D03*
X70668D02*
D03*
X71318D02*
D03*
X71968D02*
D03*
X72618D02*
D03*
X73268D02*
D03*
X52589Y61487D02*
D03*
X53239D02*
D03*
X53889D02*
D03*
X54539D02*
D03*
X55189D02*
D03*
X55839D02*
D03*
X56489D02*
D03*
X57139D02*
D03*
X52589Y67037D02*
D03*
X53239D02*
D03*
X53889D02*
D03*
X54539D02*
D03*
X55189D02*
D03*
X55839D02*
D03*
X56489D02*
D03*
X57139D02*
D03*
D25*
X68001Y73914D02*
Y74831D01*
Y72829D02*
Y73914D01*
X64389Y75627D02*
X64959D01*
X65659Y76327D01*
Y78486D01*
X66548Y79375D01*
Y82550D01*
X61087Y71640D02*
X63766D01*
X64023Y71897D01*
Y73279D01*
Y75261D01*
X64389Y75627D01*
X48387Y57023D02*
X49784D01*
X47244Y58166D02*
X48387Y57023D01*
X47244Y58166D02*
Y78232D01*
X49149Y80137D01*
X61022D01*
X68001Y72829D02*
X68059Y72771D01*
X61868Y74149D02*
X62738Y73279D01*
X61868Y74149D02*
Y74852D01*
X61068Y73413D02*
X61075Y73406D01*
X61068Y73413D02*
Y74852D01*
X61075Y73406D02*
X61341Y73140D01*
X59705Y73406D02*
X61075D01*
X58420Y76063D02*
X59057D01*
X60268Y74852D01*
X62668Y77802D02*
Y81337D01*
X64008Y82677D01*
X61068Y77802D02*
Y80091D01*
X61022Y80137D02*
X61068Y80091D01*
X61022Y80137D02*
Y81088D01*
X61468Y81534D01*
Y82677D01*
D26*
X68001Y73914D02*
X69215D01*
X53721Y77470D02*
X56007D01*
X53228Y76977D02*
X53721Y77470D01*
X53228Y75819D02*
Y76977D01*
X60706Y67437D02*
X61087D01*
X61361Y67163D01*
Y66810D02*
Y67163D01*
X61868Y77802D02*
Y78848D01*
X68832Y76962D02*
X69469D01*
X68001Y76131D02*
X68832Y76962D01*
X76764Y75100D02*
X78867Y72997D01*
Y69850D02*
Y72997D01*
X77612Y68595D02*
X78867Y69850D01*
X77612Y66421D02*
Y68595D01*
X76086Y74422D02*
X76764Y75100D01*
X73279Y74422D02*
X76086D01*
X73010Y74691D02*
X73279Y74422D01*
X73010Y74691D02*
Y75905D01*
X67183Y50825D02*
X67586Y51229D01*
X72136D01*
X48514Y51943D02*
X49228Y51229D01*
X50546D01*
X50053Y66421D02*
Y68819D01*
X49474Y72474D02*
X50152Y73152D01*
X52959D01*
X53228Y72883D01*
Y71669D02*
Y72883D01*
X62668Y74852D02*
X63974D01*
X66675Y57023D02*
X68718Y59066D01*
Y61614D01*
X65913Y59563D02*
X66929D01*
X64643Y50825D02*
Y58293D01*
X65913Y59563D01*
X73268Y61614D02*
X74568D01*
X76962Y50800D02*
X78613Y52451D01*
Y58039D01*
X77978Y58674D02*
X78613Y58039D01*
X76581Y58674D02*
X77978D01*
X75311Y59944D02*
X76581Y58674D01*
X72898Y59944D02*
X75311D01*
X72618Y60224D02*
X72898Y59944D01*
X72618Y60224D02*
Y61614D01*
X74549Y59309D02*
X76835Y57023D01*
X72136Y59309D02*
X74549D01*
X71318Y60127D02*
X72136Y59309D01*
X71318Y60127D02*
Y61614D01*
X72517Y58801D02*
X74295Y57023D01*
X71374Y58801D02*
X72517D01*
X70668Y59507D02*
X71374Y58801D01*
X70668Y59507D02*
Y61614D01*
X70018Y58760D02*
X71755Y57023D01*
X70018Y58760D02*
Y61614D01*
X69368Y57176D02*
Y61614D01*
X52705Y59436D02*
X53239Y59970D01*
Y61487D01*
X52324Y57023D02*
X53889Y58588D01*
Y61487D01*
X54539Y57348D02*
Y61487D01*
X57404Y57023D02*
Y57531D01*
X55189Y59746D02*
X57404Y57531D01*
X55189Y59746D02*
Y61487D01*
X57912Y59055D02*
X59944Y57023D01*
X56769Y59055D02*
X57912D01*
X55839Y59985D02*
X56769Y59055D01*
X55839Y59985D02*
Y61487D01*
X59563Y50825D02*
X62230Y53492D01*
Y58039D01*
X61341Y58928D02*
X62230Y58039D01*
X59309Y58928D02*
X61341D01*
X58166Y60071D02*
X59309Y58928D01*
X56896Y60071D02*
X58166D01*
X56489Y60478D02*
X56896Y60071D01*
X56489Y60478D02*
Y61487D01*
X62103Y50825D02*
X63119Y51841D01*
Y58039D01*
X61595Y59563D02*
X63119Y58039D01*
X59690Y59563D02*
X61595D01*
X57766Y61487D02*
X59690Y59563D01*
X57139Y61487D02*
X57766D01*
X52324Y57023D02*
X52959D01*
X73551Y49929D02*
X74422Y50800D01*
X72136Y49929D02*
X73551D01*
X51689Y54483D02*
X55372Y50800D01*
X51054Y54483D02*
X51689D01*
X51961Y49929D02*
X52832Y50800D01*
X50546Y49929D02*
X51961D01*
X48753Y64785D02*
X49403Y64135D01*
X48753Y64785D02*
Y66421D01*
X52578Y75819D02*
Y78090D01*
X53878Y75819D02*
X54018D01*
X55570Y74267D01*
X54272Y71669D02*
X55570Y72967D01*
X53878Y71669D02*
X54272D01*
X52578Y74549D02*
Y75819D01*
X52070Y74041D02*
X52578Y74549D01*
X51308Y74041D02*
X52070D01*
X50335Y75014D02*
X51308Y74041D01*
X49474Y75014D02*
X50335D01*
X76312Y64785D02*
X76962Y64135D01*
X76312Y64785D02*
Y66421D01*
X73660Y71755D02*
Y73279D01*
X73914Y73533D01*
X74803D01*
X75776Y72560D01*
X76764D01*
X73660Y70188D02*
X74082Y69766D01*
X73660Y70188D02*
Y71755D01*
X70935Y74480D02*
X72360Y75905D01*
X70668Y74480D02*
X70935D01*
X70668Y73180D02*
X72093Y71755D01*
X72360D01*
X73010Y70597D02*
Y71755D01*
X72644Y70231D02*
X73010Y70597D01*
X71247Y70231D02*
X72644D01*
X68707Y72771D02*
X71247Y70231D01*
X68059Y72771D02*
X68707D01*
D27*
X72136Y69469D02*
X72898Y68707D01*
X68707Y69469D02*
X72136D01*
X67691Y68453D02*
X68707Y69469D01*
X69088Y68707D02*
X69342D01*
X68718Y68337D02*
X69088Y68707D01*
X68718Y67164D02*
Y68337D01*
X61861Y65647D02*
Y66810D01*
X63861Y66147D02*
X64523D01*
X65020Y65147D02*
X66040Y66167D01*
Y67310D01*
X65278Y66040D02*
Y68199D01*
X64885Y65647D02*
X65278Y66040D01*
X64523Y65147D02*
X65020D01*
X64523Y65647D02*
X64885D01*
X66802Y77343D02*
X67564Y78105D01*
X66802Y66294D02*
Y77343D01*
X65155Y64647D02*
X66802Y66294D01*
X58547Y66167D02*
X59067Y65647D01*
X60698D01*
X59436Y67183D02*
X60472Y66147D01*
X60699D01*
X74549Y64008D02*
X76962Y61595D01*
X74549Y64008D02*
Y67818D01*
X73660Y68707D02*
X74549Y67818D01*
X72898Y68707D02*
X73660D01*
X67691Y66548D02*
Y68453D01*
X65290Y64147D02*
X67691Y66548D01*
X64523Y64147D02*
X65290D01*
X64523Y64647D02*
X65155D01*
X67564Y78105D02*
X72898D01*
X73660Y77343D01*
Y75905D02*
Y77343D01*
X63861Y66810D02*
Y69108D01*
X63119Y69850D02*
X63861Y69108D01*
X53086Y69850D02*
X63119D01*
X52578Y70358D02*
X53086Y69850D01*
X52578Y70358D02*
Y71669D01*
X49403Y61595D02*
X51308Y63500D01*
Y68072D01*
X52451Y69215D01*
X62738D01*
X63361Y68592D01*
Y66810D02*
Y68592D01*
X62861Y66810D02*
Y68203D01*
X62357Y68707D02*
X62861Y68203D01*
X55880Y68707D02*
X62357D01*
X56003Y68195D02*
X62234D01*
X62361Y68068D01*
Y66810D02*
Y68068D01*
X55189Y68016D02*
X55880Y68707D01*
X55189Y67037D02*
Y68016D01*
X55839Y68031D02*
X56003Y68195D01*
X55839Y67037D02*
Y68031D01*
X61861Y61075D02*
Y62985D01*
Y61075D02*
X62484Y60452D01*
X65786D01*
X68453Y63119D01*
X70866D01*
X73268Y65521D01*
Y67164D01*
X68326Y63754D02*
X70612D01*
X65659Y61087D02*
X68326Y63754D01*
X62865Y61087D02*
X65659D01*
X68072Y64262D02*
X70231D01*
X65405Y61595D02*
X68072Y64262D01*
X63246Y61595D02*
X65405D01*
X67818Y64770D02*
X69723D01*
X65151Y62103D02*
X67818Y64770D01*
X63627Y62103D02*
X65151D01*
X67691Y65278D02*
X69469D01*
X65397Y62985D02*
X67691Y65278D01*
X63861Y62985D02*
X65397D01*
X67564Y65786D02*
X68961D01*
X65425Y63647D02*
X67564Y65786D01*
X64523Y63647D02*
X65425D01*
X62361Y61591D02*
Y62985D01*
Y61591D02*
X62865Y61087D01*
X70612Y63754D02*
X72618Y65760D01*
Y67164D01*
X62861Y61980D02*
Y62985D01*
Y61980D02*
X63246Y61595D01*
X70231Y64262D02*
X71318Y65349D01*
Y67164D01*
X63361Y62369D02*
Y62985D01*
Y62369D02*
X63627Y62103D01*
X69723Y64770D02*
X70668Y65715D01*
Y67164D01*
X69469Y65278D02*
X70018Y65827D01*
Y67164D01*
X68961Y65786D02*
X69368Y66193D01*
Y67164D01*
X55626Y62992D02*
X61354D01*
X53239Y65379D02*
X55626Y62992D01*
X53239Y65379D02*
Y67037D01*
X55753Y63627D02*
X60678D01*
X53889Y65491D02*
X55753Y63627D01*
X53889Y65491D02*
Y67037D01*
X60686Y64135D02*
X60698Y64147D01*
X56134Y64135D02*
X60686D01*
X54539Y65730D02*
X56134Y64135D01*
X54539Y65730D02*
Y67037D01*
X57662Y65147D02*
X60698D01*
X57139Y65670D02*
X57662Y65147D01*
X57139Y65670D02*
Y67037D01*
X56515Y65532D02*
X57400Y64647D01*
X60698D01*
X56515Y65532D02*
Y67011D01*
X56489Y67037D02*
X56515Y67011D01*
D28*
X52343Y61487D02*
X52589D01*
X49784Y58928D02*
X52343Y61487D01*
X49784Y57023D02*
Y58928D01*
D29*
X61468Y82550D02*
D03*
X64008D02*
D03*
X76454D02*
D03*
X73914D02*
D03*
D30*
X66548D02*
D03*
X71374D02*
D03*
D31*
X57658Y82677D02*
D03*
X67183Y50825D02*
D03*
D32*
X55118Y82677D02*
D03*
X52578D02*
D03*
X50038D02*
D03*
X64643Y50825D02*
D03*
X62103D02*
D03*
X59563D02*
D03*
D33*
X49474Y75014D02*
D03*
Y72474D02*
D03*
X76962Y61595D02*
D03*
Y64135D02*
D03*
X49403Y61595D02*
D03*
Y64135D02*
D03*
X76764Y72560D02*
D03*
Y75100D02*
D03*
D34*
X66675Y57023D02*
D03*
X69215D02*
D03*
X71755D02*
D03*
X74295D02*
D03*
X76835D02*
D03*
X49784D02*
D03*
X52324D02*
D03*
X54864D02*
D03*
X57404D02*
D03*
X59944D02*
D03*
X55372Y50800D02*
D03*
X52832D02*
D03*
X76962D02*
D03*
X74422D02*
D03*
D35*
X47752Y54483D02*
D03*
X78232Y78994D02*
D03*
D36*
X69215Y73914D02*
D03*
X56007Y77470D02*
D03*
X64643Y70231D02*
D03*
X69977D02*
D03*
X69342Y68707D02*
D03*
X60706Y67437D02*
D03*
X61868Y78848D02*
D03*
X69469Y76962D02*
D03*
X48514Y51943D02*
D03*
X50053Y68819D02*
D03*
X66929Y59563D02*
D03*
X66040Y67310D02*
D03*
X65278Y68199D02*
D03*
X58547Y66167D02*
D03*
X59436Y67183D02*
D03*
X74568Y61614D02*
D03*
X52705Y59436D02*
D03*
X51054Y54483D02*
D03*
D37*
X62611Y64897D02*
D03*
Y63797D02*
D03*
X63711Y64897D02*
D03*
X61511D02*
D03*
X62611Y65997D02*
D03*
D38*
X61468Y76877D02*
D03*
Y75777D02*
D03*
M02*
