G04 Layer_Color=8150272*
%FSLAX43Y43*%
%MOMM*%
G71*
G01*
G75*
%ADD62C,1.753*%
%ADD63R,1.753X1.753*%
%ADD64R,2.083X2.083*%
%ADD65C,2.083*%
%ADD66P,2.034X8X202.5*%
%ADD67P,2.034X8X292.5*%
%ADD68C,2.703*%
%ADD69C,0.903*%
%ADD70C,0.603*%
D62*
X61468Y82550D02*
D03*
X64008D02*
D03*
X76454D02*
D03*
X73914D02*
D03*
D63*
X66548D02*
D03*
X71374D02*
D03*
D64*
X57658Y82677D02*
D03*
X67183Y50825D02*
D03*
D65*
X55118Y82677D02*
D03*
X52578D02*
D03*
X50038D02*
D03*
X64643Y50825D02*
D03*
X62103D02*
D03*
X59563D02*
D03*
D66*
X49474Y75014D02*
D03*
Y72474D02*
D03*
X76962Y61595D02*
D03*
Y64135D02*
D03*
X49403Y61595D02*
D03*
Y64135D02*
D03*
X76764Y72560D02*
D03*
Y75100D02*
D03*
D67*
X66675Y57023D02*
D03*
X69215D02*
D03*
X71755D02*
D03*
X74295D02*
D03*
X76835D02*
D03*
X49784D02*
D03*
X52324D02*
D03*
X54864D02*
D03*
X57404D02*
D03*
X59944D02*
D03*
X55372Y50800D02*
D03*
X52832D02*
D03*
X76962D02*
D03*
X74422D02*
D03*
D68*
X47752Y54483D02*
D03*
X78232Y78994D02*
D03*
D69*
X69215Y73914D02*
D03*
X56007Y77470D02*
D03*
X64643Y70231D02*
D03*
X69977D02*
D03*
X69342Y68707D02*
D03*
X60706Y67437D02*
D03*
X61868Y78848D02*
D03*
X69469Y76962D02*
D03*
X48514Y51943D02*
D03*
X50053Y68819D02*
D03*
X66929Y59563D02*
D03*
X66040Y67310D02*
D03*
X65278Y68199D02*
D03*
X58547Y66167D02*
D03*
X59436Y67183D02*
D03*
X74568Y61614D02*
D03*
X52705Y59436D02*
D03*
X51054Y54483D02*
D03*
D70*
X62611Y64897D02*
D03*
Y63797D02*
D03*
X63711Y64897D02*
D03*
X61511D02*
D03*
X62611Y65997D02*
D03*
M02*
