G04 Layer_Color=20142*
%FSLAX43Y43*%
%MOMM*%
G71*
G01*
G75*
%ADD47R,1.153X1.103*%
%ADD48R,1.103X1.153*%
%ADD49R,1.103X0.953*%
%ADD50R,2.590X2.590*%
G04:AMPARAMS|DCode=51|XSize=0.783mm|YSize=0.443mm|CornerRadius=0.162mm|HoleSize=0mm|Usage=FLASHONLY|Rotation=180.000|XOffset=0mm|YOffset=0mm|HoleType=Round|Shape=RoundedRectangle|*
%AMROUNDEDRECTD51*
21,1,0.783,0.120,0,0,180.0*
21,1,0.460,0.443,0,0,180.0*
1,1,0.323,-0.230,0.060*
1,1,0.323,0.230,0.060*
1,1,0.323,0.230,-0.060*
1,1,0.323,-0.230,-0.060*
%
%ADD51ROUNDEDRECTD51*%
G04:AMPARAMS|DCode=52|XSize=0.783mm|YSize=0.443mm|CornerRadius=0.162mm|HoleSize=0mm|Usage=FLASHONLY|Rotation=90.000|XOffset=0mm|YOffset=0mm|HoleType=Round|Shape=RoundedRectangle|*
%AMROUNDEDRECTD52*
21,1,0.783,0.120,0,0,90.0*
21,1,0.460,0.443,0,0,90.0*
1,1,0.323,0.060,0.230*
1,1,0.323,0.060,-0.230*
1,1,0.323,-0.060,-0.230*
1,1,0.323,-0.060,0.230*
%
%ADD52ROUNDEDRECTD52*%
%ADD53R,2.903X2.903*%
%ADD54R,0.803X1.003*%
%ADD55R,1.203X1.003*%
%ADD56R,0.903X1.103*%
%ADD57R,2.103X1.003*%
%ADD58R,0.603X0.653*%
%ADD59O,0.553X1.553*%
%ADD60R,1.103X0.903*%
%ADD61R,0.503X1.853*%
%ADD62C,1.753*%
%ADD63R,1.753X1.753*%
%ADD64R,2.083X2.083*%
%ADD65C,2.083*%
%ADD66P,2.034X8X202.5*%
%ADD67P,2.034X8X292.5*%
%ADD68C,2.703*%
%ADD69C,0.903*%
%ADD70C,0.603*%
%ADD71C,0.889*%
D47*
X64389Y75627D02*
D03*
Y77027D02*
D03*
D48*
X61022Y80137D02*
D03*
X62422D02*
D03*
D49*
X58420Y74813D02*
D03*
Y76063D02*
D03*
D50*
X62611Y64897D02*
D03*
D51*
X64523Y63647D02*
D03*
Y64147D02*
D03*
Y64647D02*
D03*
Y66147D02*
D03*
Y65647D02*
D03*
Y65147D02*
D03*
X60698Y65647D02*
D03*
X60699Y66147D02*
D03*
X60698Y65147D02*
D03*
Y64647D02*
D03*
Y64147D02*
D03*
Y63647D02*
D03*
D52*
X61361Y62985D02*
D03*
Y66810D02*
D03*
X61861D02*
D03*
X62361D02*
D03*
X62861D02*
D03*
X63361D02*
D03*
X63861D02*
D03*
Y62985D02*
D03*
X63361D02*
D03*
X62861D02*
D03*
X61861D02*
D03*
X62361D02*
D03*
D53*
X62611Y64897D02*
D03*
D54*
X58151Y73406D02*
D03*
X59451D02*
D03*
D55*
X61087Y73140D02*
D03*
Y71640D02*
D03*
D56*
X64023Y73279D02*
D03*
X62723D02*
D03*
X51293Y78105D02*
D03*
X52593D02*
D03*
X76312Y66421D02*
D03*
X77612D02*
D03*
X48753D02*
D03*
X50053D02*
D03*
X75382Y69766D02*
D03*
X74082D02*
D03*
D57*
X61468Y75777D02*
D03*
Y76877D02*
D03*
D58*
X60268Y74852D02*
D03*
X61068D02*
D03*
X61868D02*
D03*
X62668D02*
D03*
Y77802D02*
D03*
X61868D02*
D03*
X61068D02*
D03*
X60268D02*
D03*
D59*
X53878Y75819D02*
D03*
X53228D02*
D03*
X52578D02*
D03*
X51928D02*
D03*
X53878Y71669D02*
D03*
X53228D02*
D03*
X52578D02*
D03*
X51928D02*
D03*
X72360Y71755D02*
D03*
X73010D02*
D03*
X73660D02*
D03*
X74310D02*
D03*
X72360Y75905D02*
D03*
X73010D02*
D03*
X73660D02*
D03*
X74310D02*
D03*
D60*
X55570Y74267D02*
D03*
Y72967D02*
D03*
X50546Y49929D02*
D03*
Y51229D02*
D03*
X72136Y49929D02*
D03*
Y51229D02*
D03*
X68001Y74831D02*
D03*
Y76131D02*
D03*
Y71529D02*
D03*
Y72829D02*
D03*
X70668Y73180D02*
D03*
Y74480D02*
D03*
D61*
X68718Y61614D02*
D03*
X69368D02*
D03*
X70018D02*
D03*
X70668D02*
D03*
X71318D02*
D03*
X71968D02*
D03*
X72618D02*
D03*
X73268D02*
D03*
X68718Y67164D02*
D03*
X69368D02*
D03*
X70018D02*
D03*
X70668D02*
D03*
X71318D02*
D03*
X71968D02*
D03*
X72618D02*
D03*
X73268D02*
D03*
X52589Y61487D02*
D03*
X53239D02*
D03*
X53889D02*
D03*
X54539D02*
D03*
X55189D02*
D03*
X55839D02*
D03*
X56489D02*
D03*
X57139D02*
D03*
X52589Y67037D02*
D03*
X53239D02*
D03*
X53889D02*
D03*
X54539D02*
D03*
X55189D02*
D03*
X55839D02*
D03*
X56489D02*
D03*
X57139D02*
D03*
D62*
X61468Y82550D02*
D03*
X64008D02*
D03*
X76454D02*
D03*
X73914D02*
D03*
D63*
X66548D02*
D03*
X71374D02*
D03*
D64*
X57658Y82677D02*
D03*
X67183Y50825D02*
D03*
D65*
X55118Y82677D02*
D03*
X52578D02*
D03*
X50038D02*
D03*
X64643Y50825D02*
D03*
X62103D02*
D03*
X59563D02*
D03*
D66*
X49474Y75014D02*
D03*
Y72474D02*
D03*
X76962Y61595D02*
D03*
Y64135D02*
D03*
X49403Y61595D02*
D03*
Y64135D02*
D03*
X76764Y72560D02*
D03*
Y75100D02*
D03*
D67*
X66675Y57023D02*
D03*
X69215D02*
D03*
X71755D02*
D03*
X74295D02*
D03*
X76835D02*
D03*
X49784D02*
D03*
X52324D02*
D03*
X54864D02*
D03*
X57404D02*
D03*
X59944D02*
D03*
X55372Y50800D02*
D03*
X52832D02*
D03*
X76962D02*
D03*
X74422D02*
D03*
D68*
X47752Y54483D02*
D03*
X78232Y78994D02*
D03*
D69*
X69215Y73914D02*
D03*
X56007Y77470D02*
D03*
X64643Y70231D02*
D03*
X69977D02*
D03*
X69342Y68707D02*
D03*
X60706Y67437D02*
D03*
X61868Y78848D02*
D03*
X69469Y76962D02*
D03*
X48514Y51943D02*
D03*
X50053Y68819D02*
D03*
X66929Y59563D02*
D03*
X66040Y67310D02*
D03*
X65278Y68199D02*
D03*
X58547Y66167D02*
D03*
X59436Y67183D02*
D03*
X74568Y61614D02*
D03*
X52705Y59436D02*
D03*
X51054Y54483D02*
D03*
D70*
X62611Y64897D02*
D03*
Y63797D02*
D03*
X63711Y64897D02*
D03*
X61511D02*
D03*
X62611Y65997D02*
D03*
D71*
X61468Y76877D02*
D03*
Y75777D02*
D03*
M02*
