M48
;Layer_Color=6321
;FILE_FORMAT=4:3
METRIC,LZ
;TYPE=PLATED
T1F00S00C0.300
T2F00S00C0.330
T3F00S00C0.500
T4F00S00C1.016
T5F00S00C1.020
T6F00S00C2.000
%
T01
X0062611Y0063797
Y0064897
X0063711
X0061511
X0062611Y0065997
T02
X0061468Y0075777
Y0076877
T03
X0048514Y0051943
X0051054Y0054483
X0052705Y0059436
X0050053Y0068819
X0059436Y0067183
X0060706Y0067437
X0058547Y0066167
X006604Y006731
X0065278Y0068199
X0064643Y0070231
X0069977
X0069342Y0068707
X0069215Y0073914
X0069469Y0076962
X0061868Y0078848
X0056007Y007747
X0066929Y0059563
X0074568Y0061614
T04
X0052832Y00508
X0055372
X0059563Y0050825
X0062103
X0064643
X0067183
X0066675Y0057023
X0069215
X0071755
X0074295
X0076835
X0076962Y0061595
Y0064135
X0076764Y007256
Y00751
X0076962Y00508
X0074422
X0059944Y0057023
X0057404
X0054864
X0052324
X0049784
X0049403Y0061595
Y0064135
X0049474Y0072474
Y0075014
X0050038Y0082677
X0052578
X0055118
X0057658
T05
X0061468Y008255
X0064008
X0066548
X0071374
X0073914
X0076454
T06
X0047752Y0054483
X0078232Y0078994
M30
